M48
; DRILL file KiCad 10.0.3 date 2026-06-18T22:45:33
; FORMAT={-:-/ absolute / metric / decimal}
; #@! TF.CreationDate,2026-06-18T22:45:33-04:00
; #@! TF.GenerationSoftware,Kicad,Pcbnew,10.0.3
; #@! TF.FileFunction,Plated,1,4,PTH
FMAT,2
METRIC
; #@! TA.AperFunction,Plated,PTH,ViaDrill
T1C0.300
; #@! TA.AperFunction,Plated,PTH,ViaDrill
T2C0.600
; #@! TA.AperFunction,Plated,PTH,ComponentDrill
T3C0.800
; #@! TA.AperFunction,Plated,PTH,ComponentDrill
T4C1.000
; #@! TA.AperFunction,Plated,PTH,ComponentDrill
T5C1.100
; #@! TA.AperFunction,Plated,PTH,ComponentDrill
T6C1.300
; #@! TA.AperFunction,Plated,PTH,ComponentDrill
T7C3.000
%
G90
G05
T1
X125.4Y-100.6
X125.4Y-101.6
X125.4Y-102.6
X125.8Y-93.4
X126.0Y-90.2
X126.0Y-92.0
X126.4Y-100.6
X126.4Y-101.6
X126.4Y-102.6
X126.8Y-90.2
X126.8Y-92.0
X127.4Y-97.4
X127.6Y-108.4
X128.5Y-66.5
X129.6Y-98.4
X129.6Y-99.2
X129.8Y-86.8
X129.8Y-87.6
X129.8Y-95.8
X129.8Y-96.6
X129.8Y-108.2
X129.8Y-109.0
X130.4Y-98.4
X130.4Y-99.2
X130.6Y-86.8
X130.6Y-87.6
X130.6Y-93.4
X130.6Y-95.8
X130.6Y-96.6
X130.6Y-108.2
X130.6Y-109.0
X131.8Y-91.4
X131.8Y-92.2
X131.8Y-95.8
X131.8Y-96.6
X131.8Y-108.2
X131.8Y-109.0
X132.6Y-91.4
X132.6Y-92.2
X132.6Y-95.8
X132.6Y-96.6
X132.6Y-102.8
X132.6Y-103.8
X132.6Y-108.2
X132.6Y-109.0
X133.8Y-102.8
X133.8Y-103.8
X135.4Y-113.6
X135.4Y-114.4
X135.8Y-99.0
X136.0Y-87.4
X136.2Y-113.6
X136.2Y-114.4
X137.8Y-82.0
X139.8Y-96.4
X139.8Y-106.8
X140.0Y-77.8
X140.0Y-95.2
X141.5Y-99.75
X142.8Y-107.8
X142.95Y-97.25
X143.151Y-91.751
X143.5Y-73.75
X143.6Y-103.0
X143.8Y-80.6
X143.934Y-104.466
X144.6Y-60.6
X145.0Y-102.8
X145.0Y-103.6
X145.7Y-92.2
X145.8Y-102.8
X145.8Y-103.6
X146.2Y-100.4
X146.4Y-61.4
X146.8Y-59.0
X147.6Y-58.4
X147.6Y-62.0
X149.0Y-100.0
X149.6Y-95.8
X150.0Y-60.0
X151.0Y-66.0
X151.25Y-64.5
X152.0Y-58.2
X152.75Y-63.75
X153.9Y-102.5
X154.0Y-112.0
X154.4Y-91.0
X154.8Y-60.0
X155.4Y-96.6
X156.0Y-63.4
X157.8Y-59.0
X158.2Y-63.4
X158.5Y-97.25
X158.875Y-86.375
X159.25Y-89.25
X159.75Y-97.25
X161.4Y-101.8
X161.4Y-102.8
X162.2Y-100.0
X162.2Y-101.8
X162.2Y-102.8
X162.4Y-112.2
X162.4Y-113.0
X162.4Y-115.6
X162.4Y-116.4
X163.0Y-100.0
X163.2Y-103.6
X163.2Y-105.4
X163.6Y-114.8
X163.6Y-115.6
X163.8Y-100.0
X164.4Y-114.8
X164.4Y-115.6
X164.6Y-100.0
X164.8Y-87.8
X165.4Y-101.4
X165.4Y-102.2
X166.2Y-101.4
X166.2Y-102.2
X166.6Y-117.4
X168.0Y-94.8
X168.9Y-115.1
X169.0Y-114.2
X169.6Y-87.0
X169.6Y-108.4
X169.6Y-109.2
X169.6Y-110.0
X171.0Y-103.6
X171.0Y-104.6
X172.0Y-103.6
X172.0Y-104.6
T2
X149.8Y-107.811
X150.989Y-107.811
X161.6Y-107.6
X161.6Y-108.75
X162.8Y-107.6
X162.8Y-108.75
X168.8Y-99.7
X170.2Y-99.7
X171.6Y-99.7
X173.0Y-99.7
T3
X163.84Y-77.812
X163.84Y-79.812
X163.84Y-81.812
X165.84Y-77.812
X165.84Y-79.812
X165.84Y-81.812
X178.08Y-75.36
X178.08Y-77.9
T4
X130.66Y-58.6
X130.66Y-61.14
X133.2Y-58.6
X133.2Y-61.14
X135.74Y-58.6
X135.74Y-61.14
X138.28Y-58.6
X138.28Y-61.14
X148.205Y-111.71
X148.205Y-114.25
X148.205Y-116.79
X151.955Y-111.71
X151.955Y-114.25
X151.955Y-116.79
X161.67Y-58.46
X161.67Y-61.0
X164.21Y-58.46
X164.21Y-61.0
X166.75Y-58.46
X166.75Y-61.0
X169.29Y-58.46
X169.29Y-61.0
T5
X120.39Y-69.01
X120.39Y-84.25
X122.93Y-69.01
X122.93Y-84.25
X125.47Y-69.01
X125.47Y-84.25
X128.01Y-69.01
X128.01Y-84.25
X130.55Y-69.01
X130.55Y-84.25
X133.09Y-69.01
X133.09Y-71.55
X133.09Y-74.09
X133.09Y-76.63
X133.09Y-79.17
X133.09Y-81.71
X133.09Y-84.25
X135.63Y-69.01
X135.63Y-84.25
X138.17Y-69.01
X138.17Y-84.25
X140.71Y-69.01
X140.71Y-84.25
X143.25Y-69.01
X143.25Y-84.25
X145.79Y-69.01
X145.79Y-84.25
X148.33Y-69.01
X148.33Y-84.25
X150.87Y-69.01
X150.87Y-84.25
X153.41Y-69.01
X153.41Y-84.25
X155.95Y-69.01
X155.95Y-84.25
X158.49Y-69.01
X158.49Y-84.25
X161.03Y-69.01
X161.03Y-84.25
X162.351Y-72.061
X163.57Y-69.01
X163.57Y-84.25
X164.891Y-72.061
X166.11Y-69.01
X166.11Y-84.25
X167.431Y-72.061
X168.65Y-69.01
X168.65Y-84.25
X169.971Y-72.061
X171.19Y-69.01
X171.19Y-84.25
X172.511Y-72.061
X173.73Y-69.01
X173.73Y-84.25
X176.27Y-69.01
X176.27Y-81.71
X176.27Y-84.25
X178.81Y-69.01
X178.81Y-84.25
T6
X121.75Y-89.75
X121.75Y-94.75
X121.75Y-101.0
X121.75Y-106.0
X178.0Y-90.0
X178.0Y-95.0
X178.0Y-101.25
X178.0Y-106.25
T7
X123.25Y-60.75
X123.25Y-114.25
X176.75Y-60.75
X176.75Y-114.25
M30
