%TF.GenerationSoftware,KiCad,Pcbnew,10.0.3*%
%TF.CreationDate,2026-06-18T22:45:39-04:00*%
%TF.ProjectId,flight_computer,666c6967-6874-45f6-936f-6d7075746572,rev?*%
%TF.SameCoordinates,Original*%
%TF.FileFunction,Soldermask,Top*%
%TF.FilePolarity,Negative*%
%FSLAX46Y46*%
G04 Gerber Fmt 4.6, Leading zero omitted, Abs format (unit mm)*
G04 Created by KiCad (PCBNEW 10.0.3) date 2026-06-18 22:45:39*
%MOMM*%
%LPD*%
G01*
G04 APERTURE LIST*
G04 Aperture macros list*
%AMRoundRect*
0 Rectangle with rounded corners*
0 $1 Rounding radius*
0 $2 $3 $4 $5 $6 $7 $8 $9 X,Y pos of 4 corners*
0 Add a 4 corners polygon primitive as box body*
4,1,4,$2,$3,$4,$5,$6,$7,$8,$9,$2,$3,0*
0 Add four circle primitives for the rounded corners*
1,1,$1+$1,$2,$3*
1,1,$1+$1,$4,$5*
1,1,$1+$1,$6,$7*
1,1,$1+$1,$8,$9*
0 Add four rect primitives between the rounded corners*
20,1,$1+$1,$2,$3,$4,$5,0*
20,1,$1+$1,$4,$5,$6,$7,0*
20,1,$1+$1,$6,$7,$8,$9,0*
20,1,$1+$1,$8,$9,$2,$3,0*%
G04 Aperture macros list end*
%ADD10RoundRect,0.198500X-0.508500X-0.198500X0.508500X-0.198500X0.508500X0.198500X-0.508500X0.198500X0*%
%ADD11RoundRect,0.225000X0.225000X0.250000X-0.225000X0.250000X-0.225000X-0.250000X0.225000X-0.250000X0*%
%ADD12RoundRect,0.100500X0.301500X-0.601500X0.301500X0.601500X-0.301500X0.601500X-0.301500X-0.601500X0*%
%ADD13RoundRect,0.218750X0.218750X0.256250X-0.218750X0.256250X-0.218750X-0.256250X0.218750X-0.256250X0*%
%ADD14C,6.000000*%
%ADD15R,1.700000X1.700000*%
%ADD16C,1.700000*%
%ADD17RoundRect,0.102000X-0.800000X1.750000X-0.800000X-1.750000X0.800000X-1.750000X0.800000X1.750000X0*%
%ADD18C,2.154000*%
%ADD19RoundRect,0.200000X0.200000X0.275000X-0.200000X0.275000X-0.200000X-0.275000X0.200000X-0.275000X0*%
%ADD20RoundRect,0.200000X-0.200000X-0.275000X0.200000X-0.275000X0.200000X0.275000X-0.200000X0.275000X0*%
%ADD21RoundRect,0.200000X0.275000X-0.200000X0.275000X0.200000X-0.275000X0.200000X-0.275000X-0.200000X0*%
%ADD22RoundRect,0.200000X-0.275000X0.200000X-0.275000X-0.200000X0.275000X-0.200000X0.275000X0.200000X0*%
%ADD23RoundRect,0.100500X-0.301500X0.601500X-0.301500X-0.601500X0.301500X-0.601500X0.301500X0.601500X0*%
%ADD24RoundRect,0.100500X-0.601500X-0.301500X0.601500X-0.301500X0.601500X0.301500X-0.601500X0.301500X0*%
%ADD25RoundRect,0.099250X-0.297750X0.627750X-0.297750X-0.627750X0.297750X-0.627750X0.297750X0.627750X0*%
%ADD26RoundRect,0.100500X0.601500X0.301500X-0.601500X0.301500X-0.601500X-0.301500X0.601500X-0.301500X0*%
%ADD27RoundRect,0.100500X0.301500X-0.616500X0.301500X0.616500X-0.301500X0.616500X-0.301500X-0.616500X0*%
%ADD28R,2.997200X1.219200*%
%ADD29RoundRect,0.225000X0.250000X-0.225000X0.250000X0.225000X-0.250000X0.225000X-0.250000X-0.225000X0*%
%ADD30RoundRect,0.218750X-0.218750X-0.256250X0.218750X-0.256250X0.218750X0.256250X-0.218750X0.256250X0*%
%ADD31R,1.600000X1.600000*%
%ADD32C,1.600000*%
%ADD33R,1.300000X1.300000*%
%ADD34C,1.300000*%
%ADD35R,2.000000X1.100000*%
%ADD36RoundRect,0.250000X0.300000X-0.300000X0.300000X0.300000X-0.300000X0.300000X-0.300000X-0.300000X0*%
%ADD37RoundRect,0.250000X-0.300000X0.300000X-0.300000X-0.300000X0.300000X-0.300000X0.300000X0.300000X0*%
%ADD38R,1.549400X0.863600*%
%ADD39R,1.549400X3.149600*%
%ADD40RoundRect,0.225000X-0.250000X0.225000X-0.250000X-0.225000X0.250000X-0.225000X0.250000X0.225000X0*%
%ADD41RoundRect,0.225000X-0.225000X-0.250000X0.225000X-0.250000X0.225000X0.250000X-0.225000X0.250000X0*%
G04 APERTURE END LIST*
D10*
%TO.C,U3*%
X150745000Y-98300000D03*
X150745000Y-99250000D03*
X150745000Y-100200000D03*
X153255000Y-100200000D03*
X153255000Y-98300000D03*
%TD*%
D11*
%TO.C,C6*%
X166025000Y-105250000D03*
X164475000Y-105250000D03*
%TD*%
D12*
%TO.C,Q4*%
X132550000Y-107055000D03*
X134450000Y-107055000D03*
X133500000Y-104945000D03*
%TD*%
D13*
%TO.C,D9*%
X162037500Y-90950000D03*
X160462500Y-90950000D03*
%TD*%
D14*
%TO.C,H3*%
X176750000Y-60750000D03*
%TD*%
D15*
%TO.C,J1*%
X130660000Y-61140000D03*
D16*
X130660000Y-58600000D03*
X133200000Y-61140000D03*
X133200000Y-58600000D03*
X135740000Y-61140000D03*
X135740000Y-58600000D03*
X138280000Y-61140000D03*
X138280000Y-58600000D03*
%TD*%
D17*
%TO.C,C11*%
X159750000Y-108050000D03*
X159750000Y-102450000D03*
%TD*%
D18*
%TO.C,J2*%
X178000000Y-106250000D03*
X178000000Y-101250000D03*
%TD*%
D19*
%TO.C,R25*%
X129825000Y-92000000D03*
X128175000Y-92000000D03*
%TD*%
%TO.C,R20*%
X142250000Y-93500000D03*
X140600000Y-93500000D03*
%TD*%
D20*
%TO.C,R21*%
X140600000Y-91750000D03*
X142250000Y-91750000D03*
%TD*%
%TO.C,R34*%
X155100000Y-93990000D03*
X156750000Y-93990000D03*
%TD*%
D21*
%TO.C,R14*%
X130000000Y-107150000D03*
X130000000Y-105500000D03*
%TD*%
D22*
%TO.C,R11*%
X136675000Y-106925000D03*
X136675000Y-108575000D03*
%TD*%
D18*
%TO.C,J4*%
X121750000Y-101000000D03*
X121750000Y-106000000D03*
%TD*%
D23*
%TO.C,D5*%
X139450000Y-87695000D03*
X137550000Y-87695000D03*
X138500000Y-89805000D03*
%TD*%
D24*
%TO.C,D2*%
X136445000Y-103300000D03*
X136445000Y-105200000D03*
X138555000Y-104250000D03*
%TD*%
D19*
%TO.C,R33*%
X156750000Y-92230000D03*
X155100000Y-92230000D03*
%TD*%
D23*
%TO.C,D3*%
X143200000Y-87695000D03*
X141300000Y-87695000D03*
X142250000Y-89805000D03*
%TD*%
D22*
%TO.C,R15*%
X127750000Y-105500000D03*
X127750000Y-107150000D03*
%TD*%
D25*
%TO.C,U2*%
X168500000Y-108995000D03*
X167550000Y-108995000D03*
X166600000Y-108995000D03*
X166600000Y-111505000D03*
X167550000Y-111505000D03*
X168500000Y-111505000D03*
%TD*%
D26*
%TO.C,Q1*%
X166860000Y-99700000D03*
X166860000Y-97800000D03*
X164750000Y-98750000D03*
%TD*%
D27*
%TO.C,Q3*%
X133550000Y-101060000D03*
X135450000Y-101060000D03*
X134500000Y-98940000D03*
%TD*%
D14*
%TO.C,H2*%
X176750000Y-114250000D03*
%TD*%
D22*
%TO.C,R23*%
X131750000Y-87925000D03*
X131750000Y-89575000D03*
%TD*%
D15*
%TO.C,J7*%
X151955100Y-111710000D03*
D16*
X151955100Y-114250000D03*
X151955100Y-116790000D03*
%TD*%
D12*
%TO.C,Q7*%
X132650000Y-94510000D03*
X134550000Y-94510000D03*
X133600000Y-92400000D03*
%TD*%
D19*
%TO.C,R41*%
X165575000Y-88950000D03*
X163925000Y-88950000D03*
%TD*%
D28*
%TO.C,C25*%
X144455100Y-114250000D03*
X139044900Y-114250000D03*
%TD*%
D15*
%TO.C,J9*%
X161670000Y-61000000D03*
D16*
X161670000Y-58460000D03*
X164210000Y-61000000D03*
X164210000Y-58460000D03*
X166750000Y-61000000D03*
X166750000Y-58460000D03*
X169290000Y-61000000D03*
X169290000Y-58460000D03*
%TD*%
D24*
%TO.C,D4*%
X136620000Y-91940000D03*
X136620000Y-93840000D03*
X138730000Y-92890000D03*
%TD*%
D27*
%TO.C,Q5*%
X133800000Y-89810000D03*
X135700000Y-89810000D03*
X134750000Y-87690000D03*
%TD*%
D15*
%TO.C,J6*%
X148205100Y-111710000D03*
D16*
X148205100Y-114250000D03*
X148205100Y-116790000D03*
%TD*%
D29*
%TO.C,C9*%
X155200000Y-100175000D03*
X155200000Y-98625000D03*
%TD*%
D28*
%TO.C,C24*%
X155705100Y-114250000D03*
X161115300Y-114250000D03*
%TD*%
D11*
%TO.C,C3*%
X169250000Y-101750000D03*
X167700000Y-101750000D03*
%TD*%
D19*
%TO.C,R10*%
X142250000Y-104750000D03*
X140600000Y-104750000D03*
%TD*%
D21*
%TO.C,R1*%
X167550000Y-115570000D03*
X167550000Y-113920000D03*
%TD*%
D30*
%TO.C,L1*%
X167712500Y-105250000D03*
X169287500Y-105250000D03*
%TD*%
D19*
%TO.C,R31*%
X165575000Y-90950000D03*
X163925000Y-90950000D03*
%TD*%
D31*
%TO.C,U6*%
X178810000Y-69010000D03*
D32*
X176270000Y-69010000D03*
X173730000Y-69010000D03*
X171190000Y-69010000D03*
X168650000Y-69010000D03*
X166110000Y-69010000D03*
X163570000Y-69010000D03*
X161030000Y-69010000D03*
X158490000Y-69010000D03*
X155950000Y-69010000D03*
X153410000Y-69010000D03*
X150870000Y-69010000D03*
X148330000Y-69010000D03*
X145790000Y-69010000D03*
X143250000Y-69010000D03*
X140710000Y-69010000D03*
X138170000Y-69010000D03*
X135630000Y-69010000D03*
X133090000Y-69010000D03*
X130550000Y-69010000D03*
X128010000Y-69010000D03*
X125470000Y-69010000D03*
X122930000Y-69010000D03*
X120390000Y-69010000D03*
X120390000Y-84250000D03*
X122930000Y-84250000D03*
X125470000Y-84250000D03*
X128010000Y-84250000D03*
X130550000Y-84250000D03*
X133090000Y-84250000D03*
X135630000Y-84250000D03*
X138170000Y-84250000D03*
X140710000Y-84250000D03*
X143250000Y-84250000D03*
X145790000Y-84250000D03*
X148330000Y-84250000D03*
X150870000Y-84250000D03*
X153410000Y-84250000D03*
X155950000Y-84250000D03*
X158490000Y-84250000D03*
X161030000Y-84250000D03*
X163570000Y-84250000D03*
X166110000Y-84250000D03*
X168650000Y-84250000D03*
X171190000Y-84250000D03*
X173730000Y-84250000D03*
X176270000Y-84250000D03*
X178810000Y-84250000D03*
X176270000Y-81710000D03*
X133090000Y-71550000D03*
X133090000Y-74090000D03*
X133090000Y-76630000D03*
X133090000Y-79170000D03*
X133090000Y-81710000D03*
D31*
X172510800Y-72060800D03*
D32*
X169970800Y-72060800D03*
X167430800Y-72060800D03*
X164890800Y-72060800D03*
X162350800Y-72060800D03*
D33*
X165840000Y-81811600D03*
D34*
X165840000Y-79811600D03*
X165840000Y-77811600D03*
X163840000Y-77811600D03*
X163840000Y-79811600D03*
X163840000Y-81811600D03*
X178080000Y-77900000D03*
X178080000Y-75360000D03*
%TD*%
D22*
%TO.C,R2*%
X164200000Y-111575000D03*
X164200000Y-113225000D03*
%TD*%
D12*
%TO.C,Q6*%
X128050000Y-89805000D03*
X129950000Y-89805000D03*
X129000000Y-87695000D03*
%TD*%
D11*
%TO.C,C10*%
X148175000Y-98400000D03*
X146625000Y-98400000D03*
%TD*%
D22*
%TO.C,R8*%
X131500000Y-99175000D03*
X131500000Y-100825000D03*
%TD*%
D20*
%TO.C,R37*%
X164675000Y-94250000D03*
X166325000Y-94250000D03*
%TD*%
%TO.C,R9*%
X140600000Y-103000000D03*
X142250000Y-103000000D03*
%TD*%
D13*
%TO.C,D8*%
X162037500Y-88950000D03*
X160462500Y-88950000D03*
%TD*%
D19*
%TO.C,R13*%
X129575000Y-103250000D03*
X127925000Y-103250000D03*
%TD*%
D21*
%TO.C,R3*%
X165800000Y-115570000D03*
X165800000Y-113920000D03*
%TD*%
D35*
%TO.C,D6*%
X147600000Y-92300000D03*
X147600000Y-94000000D03*
X147600000Y-95700000D03*
X152400000Y-95700000D03*
X152400000Y-94000000D03*
X152400000Y-92300000D03*
%TD*%
D11*
%TO.C,C21*%
X145458700Y-107678500D03*
X143908700Y-107678500D03*
%TD*%
D36*
%TO.C,D7*%
X162250000Y-98625000D03*
D37*
X162250000Y-95225000D03*
%TD*%
D22*
%TO.C,R22*%
X136675000Y-95425000D03*
X136675000Y-97075000D03*
%TD*%
D21*
%TO.C,R24*%
X138425000Y-97075000D03*
X138425000Y-95425000D03*
%TD*%
D11*
%TO.C,C7*%
X166025000Y-107000000D03*
X164475000Y-107000000D03*
%TD*%
D21*
%TO.C,R12*%
X138500000Y-108575000D03*
X138500000Y-106925000D03*
%TD*%
D11*
%TO.C,C22*%
X145483700Y-105500000D03*
X143933700Y-105500000D03*
%TD*%
D38*
%TO.C,U7*%
X147500000Y-103188600D03*
X147500000Y-105500000D03*
X147500000Y-107811400D03*
D39*
X153367400Y-105500000D03*
%TD*%
D12*
%TO.C,Q2*%
X127800000Y-101055000D03*
X129700000Y-101055000D03*
X128750000Y-98945000D03*
%TD*%
D11*
%TO.C,C2*%
X169250000Y-103500000D03*
X167700000Y-103500000D03*
%TD*%
D40*
%TO.C,C17*%
X144750000Y-57475000D03*
X144750000Y-59025000D03*
%TD*%
D19*
%TO.C,R26*%
X130625000Y-94400000D03*
X128975000Y-94400000D03*
%TD*%
%TO.C,R29*%
X158575000Y-87750000D03*
X156925000Y-87750000D03*
%TD*%
D18*
%TO.C,J3*%
X178000000Y-95000000D03*
X178000000Y-90000000D03*
%TD*%
D19*
%TO.C,R35*%
X148575000Y-90000000D03*
X146925000Y-90000000D03*
%TD*%
D22*
%TO.C,R27*%
X127200000Y-94375000D03*
X127200000Y-96025000D03*
%TD*%
D41*
%TO.C,C1*%
X167725000Y-107000000D03*
X169275000Y-107000000D03*
%TD*%
D11*
%TO.C,C5*%
X166025000Y-103500000D03*
X164475000Y-103500000D03*
%TD*%
D14*
%TO.C,H4*%
X123250000Y-60750000D03*
%TD*%
D20*
%TO.C,R36*%
X160425000Y-87200000D03*
X162075000Y-87200000D03*
%TD*%
D14*
%TO.C,H1*%
X123250000Y-114250000D03*
%TD*%
D19*
%TO.C,R38*%
X166325000Y-96000000D03*
X164675000Y-96000000D03*
%TD*%
D40*
%TO.C,C16*%
X143000000Y-57475000D03*
X143000000Y-59025000D03*
%TD*%
D18*
%TO.C,J5*%
X121750000Y-89750000D03*
X121750000Y-94750000D03*
%TD*%
M02*
