%TF.GenerationSoftware,KiCad,Pcbnew,10.0.3*%
%TF.CreationDate,2026-06-18T22:45:38-04:00*%
%TF.ProjectId,flight_computer,666c6967-6874-45f6-936f-6d7075746572,rev?*%
%TF.SameCoordinates,Original*%
%TF.FileFunction,Copper,L4,Bot*%
%TF.FilePolarity,Positive*%
%FSLAX46Y46*%
G04 Gerber Fmt 4.6, Leading zero omitted, Abs format (unit mm)*
G04 Created by KiCad (PCBNEW 10.0.3) date 2026-06-18 22:45:38*
%MOMM*%
%LPD*%
G01*
G04 APERTURE LIST*
G04 Aperture macros list*
%AMRoundRect*
0 Rectangle with rounded corners*
0 $1 Rounding radius*
0 $2 $3 $4 $5 $6 $7 $8 $9 X,Y pos of 4 corners*
0 Add a 4 corners polygon primitive as box body*
4,1,4,$2,$3,$4,$5,$6,$7,$8,$9,$2,$3,0*
0 Add four circle primitives for the rounded corners*
1,1,$1+$1,$2,$3*
1,1,$1+$1,$4,$5*
1,1,$1+$1,$6,$7*
1,1,$1+$1,$8,$9*
0 Add four rect primitives between the rounded corners*
20,1,$1+$1,$2,$3,$4,$5,0*
20,1,$1+$1,$4,$5,$6,$7,0*
20,1,$1+$1,$6,$7,$8,$9,0*
20,1,$1+$1,$8,$9,$2,$3,0*%
G04 Aperture macros list end*
%TA.AperFunction,ComponentPad*%
%ADD10C,6.000000*%
%TD*%
%TA.AperFunction,ComponentPad*%
%ADD11R,1.700000X1.700000*%
%TD*%
%TA.AperFunction,ComponentPad*%
%ADD12C,1.700000*%
%TD*%
%TA.AperFunction,ComponentPad*%
%ADD13C,1.950000*%
%TD*%
%TA.AperFunction,ComponentPad*%
%ADD14R,1.600000X1.600000*%
%TD*%
%TA.AperFunction,ComponentPad*%
%ADD15C,1.600000*%
%TD*%
%TA.AperFunction,ComponentPad*%
%ADD16R,1.300000X1.300000*%
%TD*%
%TA.AperFunction,ComponentPad*%
%ADD17C,1.300000*%
%TD*%
%TA.AperFunction,SMDPad,CuDef*%
%ADD18R,0.275000X0.250000*%
%TD*%
%TA.AperFunction,SMDPad,CuDef*%
%ADD19R,0.250000X0.275000*%
%TD*%
%TA.AperFunction,SMDPad,CuDef*%
%ADD20RoundRect,0.200000X-0.275000X0.200000X-0.275000X-0.200000X0.275000X-0.200000X0.275000X0.200000X0*%
%TD*%
%TA.AperFunction,SMDPad,CuDef*%
%ADD21RoundRect,0.225000X0.225000X0.250000X-0.225000X0.250000X-0.225000X-0.250000X0.225000X-0.250000X0*%
%TD*%
%TA.AperFunction,SMDPad,CuDef*%
%ADD22RoundRect,0.225000X-0.225000X-0.250000X0.225000X-0.250000X0.225000X0.250000X-0.225000X0.250000X0*%
%TD*%
%TA.AperFunction,SMDPad,CuDef*%
%ADD23RoundRect,0.200000X0.275000X-0.200000X0.275000X0.200000X-0.275000X0.200000X-0.275000X-0.200000X0*%
%TD*%
%TA.AperFunction,SMDPad,CuDef*%
%ADD24RoundRect,0.225000X0.250000X-0.225000X0.250000X0.225000X-0.250000X0.225000X-0.250000X-0.225000X0*%
%TD*%
%TA.AperFunction,SMDPad,CuDef*%
%ADD25R,0.576580X0.351536*%
%TD*%
%TA.AperFunction,SMDPad,CuDef*%
%ADD26R,0.351536X0.576580*%
%TD*%
%TA.AperFunction,SMDPad,CuDef*%
%ADD27R,1.300000X3.400000*%
%TD*%
%TA.AperFunction,SMDPad,CuDef*%
%ADD28RoundRect,0.225000X-0.250000X0.225000X-0.250000X-0.225000X0.250000X-0.225000X0.250000X0.225000X0*%
%TD*%
%TA.AperFunction,ViaPad*%
%ADD29C,0.600000*%
%TD*%
%TA.AperFunction,ViaPad*%
%ADD30C,1.000000*%
%TD*%
%TA.AperFunction,Conductor*%
%ADD31C,0.200000*%
%TD*%
G04 APERTURE END LIST*
D10*
%TO.P,H3,1,1_1*%
%TO.N,GND*%
X176750000Y-60750000D03*
%TD*%
D11*
%TO.P,J1,1,Pin_1_1*%
%TO.N,GND*%
X130660000Y-61140000D03*
D12*
%TO.P,J1,2,Pin_2_2*%
%TO.N,+3.3V*%
X130660000Y-58600000D03*
%TO.P,J1,3,Pin_3_3*%
%TO.N,/CE_NRF*%
X133200000Y-61140000D03*
%TO.P,J1,4,Pin_4_4*%
%TO.N,/CNS_NRF*%
X133200000Y-58600000D03*
%TO.P,J1,5,Pin_5_5*%
%TO.N,/Barometer/SCK*%
X135740000Y-61140000D03*
%TO.P,J1,6,Pin_6_6*%
%TO.N,/Barometer/SDI*%
X135740000Y-58600000D03*
%TO.P,J1,7,Pin_7_7*%
%TO.N,/Barometer/SDO*%
X138280000Y-61140000D03*
%TO.P,J1,8,Pin_8_8*%
%TO.N,/INT_NRF*%
X138280000Y-58600000D03*
%TD*%
D13*
%TO.P,J2,1,Pin_1_1*%
%TO.N,GND*%
X178000000Y-106250000D03*
%TO.P,J2,2,Pin_2_2*%
%TO.N,/Reverse Polarity/BAT+*%
X178000000Y-101250000D03*
%TD*%
%TO.P,J4,1,Pin_1_1*%
%TO.N,/Pyro 1/PYRO+*%
X121750000Y-101000000D03*
%TO.P,J4,2,Pin_2_2*%
%TO.N,/Pyro 1/PYRO-*%
X121750000Y-106000000D03*
%TD*%
D10*
%TO.P,H2,1,1_1*%
%TO.N,GND*%
X176750000Y-114250000D03*
%TD*%
D11*
%TO.P,J7,1,Pin_1_1*%
%TO.N,Net-(J7-Pin_1)*%
X151955100Y-111710000D03*
D12*
%TO.P,J7,2,Pin_2_2*%
%TO.N,+6V*%
X151955100Y-114250000D03*
%TO.P,J7,3,Pin_3_3*%
%TO.N,GND*%
X151955100Y-116790000D03*
%TD*%
D11*
%TO.P,J9,1,Pin_1_1*%
%TO.N,+3.3V*%
X161670000Y-61000000D03*
D12*
%TO.P,J9,2,Pin_2_2*%
X161670000Y-58460000D03*
%TO.P,J9,3,Pin_3_3*%
%TO.N,/SCL*%
X164210000Y-61000000D03*
%TO.P,J9,4,Pin_4_4*%
%TO.N,/RX_GPS*%
X164210000Y-58460000D03*
%TO.P,J9,5,Pin_5_5*%
%TO.N,/SDA*%
X166750000Y-61000000D03*
%TO.P,J9,6,Pin_6_6*%
%TO.N,/TX_GPS*%
X166750000Y-58460000D03*
%TO.P,J9,7,Pin_7_7*%
%TO.N,GND*%
X169290000Y-61000000D03*
%TO.P,J9,8,Pin_8_8*%
X169290000Y-58460000D03*
%TD*%
D11*
%TO.P,J6,1,Pin_1_1*%
%TO.N,Net-(J6-Pin_1)*%
X148205100Y-111710000D03*
D12*
%TO.P,J6,2,Pin_2_2*%
%TO.N,+6V*%
X148205100Y-114250000D03*
%TO.P,J6,3,Pin_3_3*%
%TO.N,GND*%
X148205100Y-116790000D03*
%TD*%
D14*
%TO.P,U6,1,GND_1*%
%TO.N,GND*%
X178810000Y-69010000D03*
D15*
%TO.P,U6,2,0_RX1_CRX2_CS1_2*%
%TO.N,/TX_GPS*%
X176270000Y-69010000D03*
%TO.P,U6,3,1_TX1_CTX2_MISO1_3*%
%TO.N,/RX_GPS*%
X173730000Y-69010000D03*
%TO.P,U6,4,2_OUT2_4*%
%TO.N,unconnected-(U6-2_OUT2-Pad4)*%
X171190000Y-69010000D03*
%TO.P,U6,5,3_LRCLK2_5*%
%TO.N,unconnected-(U6-3_LRCLK2-Pad5)*%
X168650000Y-69010000D03*
%TO.P,U6,6,4_BCLK2_6*%
%TO.N,unconnected-(U6-4_BCLK2-Pad6)*%
X166110000Y-69010000D03*
%TO.P,U6,7,5_IN2_7*%
%TO.N,unconnected-(U6-5_IN2-Pad7)*%
X163570000Y-69010000D03*
%TO.P,U6,8,6_OUT1D_8*%
%TO.N,/CS_BARO*%
X161030000Y-69010000D03*
%TO.P,U6,9,7_RX2_OUT1A_9*%
%TO.N,/INT_BARO*%
X158490000Y-69010000D03*
%TO.P,U6,10,8_TX2_IN1_10*%
%TO.N,/INT_IMU_2*%
X155950000Y-69010000D03*
%TO.P,U6,11,9_OUT1C_11*%
%TO.N,/CS_IMU*%
X153410000Y-69010000D03*
%TO.P,U6,12,10_CS_MQSR_12*%
%TO.N,/INT_IMU_1*%
X150870000Y-69010000D03*
%TO.P,U6,13,11_MOSI_CTX1_13*%
%TO.N,/Barometer/SDI*%
X148330000Y-69010000D03*
%TO.P,U6,14,12_MISO_MQSL_14*%
%TO.N,/Barometer/SDO*%
X145790000Y-69010000D03*
%TO.P,U6,15,3V3_15*%
%TO.N,unconnected-(U6-3V3-Pad15)*%
X143250000Y-69010000D03*
%TO.P,U6,16,24_A10_TX6_SCL2_16*%
%TO.N,unconnected-(U6-24_A10_TX6_SCL2-Pad16)*%
X140710000Y-69010000D03*
%TO.P,U6,17,25_A11_RX6_SDA2_17*%
%TO.N,unconnected-(U6-25_A11_RX6_SDA2-Pad17)*%
X138170000Y-69010000D03*
%TO.P,U6,18,26_A12_MOSI1_18*%
%TO.N,unconnected-(U6-26_A12_MOSI1-Pad18)*%
X135630000Y-69010000D03*
%TO.P,U6,19,27_A13_SCK1_19*%
%TO.N,unconnected-(U6-27_A13_SCK1-Pad19)*%
X133090000Y-69010000D03*
%TO.P,U6,20,28_RX7_20*%
%TO.N,/MCU/BUZZER*%
X130550000Y-69010000D03*
%TO.P,U6,21,29_TX7_21*%
%TO.N,/Indication/SIGNAL*%
X128010000Y-69010000D03*
%TO.P,U6,22,30_CRX3_22*%
%TO.N,/CE_NRF*%
X125470000Y-69010000D03*
%TO.P,U6,23,31_CTX3_23*%
%TO.N,/CNS_NRF*%
X122930000Y-69010000D03*
%TO.P,U6,24,32_OUT1B_24*%
%TO.N,/INT_NRF*%
X120390000Y-69010000D03*
%TO.P,U6,25,33_MCLK2_25*%
%TO.N,/FIRE_1*%
X120390000Y-84250000D03*
%TO.P,U6,26,34_RX8_26*%
%TO.N,/ARM_1*%
X122930000Y-84250000D03*
%TO.P,U6,27,35_TX8_27*%
%TO.N,/ARM_2*%
X125470000Y-84250000D03*
%TO.P,U6,28,36_CS_28*%
%TO.N,/FIRE_2*%
X128010000Y-84250000D03*
%TO.P,U6,29,37_CS_29*%
%TO.N,/Indication/B*%
X130550000Y-84250000D03*
%TO.P,U6,30,38_CS1_IN1_30*%
%TO.N,/MCU/VDIV_3V3*%
X133090000Y-84250000D03*
%TO.P,U6,31,39_MISO1_OUT1A_31*%
%TO.N,/MCU/VDIV_6V*%
X135630000Y-84250000D03*
%TO.P,U6,32,40_A16_32*%
%TO.N,/CONT_2*%
X138170000Y-84250000D03*
%TO.P,U6,33,41_A17_33*%
%TO.N,/CONT_1*%
X140710000Y-84250000D03*
%TO.P,U6,34,GND_34*%
%TO.N,GND*%
X143250000Y-84250000D03*
%TO.P,U6,35,13_SCK_LED_35*%
%TO.N,/Barometer/SCK*%
X145790000Y-84250000D03*
%TO.P,U6,36,14_A0_TX3_SPDIF_OUT_36*%
%TO.N,/Indication/R*%
X148330000Y-84250000D03*
%TO.P,U6,37,15_A1_RX3_SPDIF_IN_37*%
%TO.N,/Indication/G*%
X150870000Y-84250000D03*
%TO.P,U6,38,16_A2_RX4_SCL1_38*%
%TO.N,/SCL*%
X153410000Y-84250000D03*
%TO.P,U6,39,17_A3_TX4_SDA1_39*%
%TO.N,/SDA*%
X155950000Y-84250000D03*
%TO.P,U6,40,18_A4_SDA_40*%
%TO.N,/MCU/SERVO_1*%
X158490000Y-84250000D03*
%TO.P,U6,41,19_A5_SCL_41*%
%TO.N,/MCU/SERVO2*%
X161030000Y-84250000D03*
%TO.P,U6,42,20_A6_TX5_LRCLK1_42*%
%TO.N,/MCU/VDIV_BATT*%
X163570000Y-84250000D03*
%TO.P,U6,43,21_A7_RX5_BCLK1_43*%
%TO.N,/MCU/VDIV_5V*%
X166110000Y-84250000D03*
%TO.P,U6,44,22_A8_CTX1_44*%
%TO.N,unconnected-(U6-22_A8_CTX1-Pad44)*%
X168650000Y-84250000D03*
%TO.P,U6,45,23_A9_CRX1_MCLK1_45*%
%TO.N,unconnected-(U6-23_A9_CRX1_MCLK1-Pad45)*%
X171190000Y-84250000D03*
%TO.P,U6,46,3V3_46*%
%TO.N,unconnected-(U6-3V3-Pad46)*%
X173730000Y-84250000D03*
%TO.P,U6,47,GND_47*%
%TO.N,GND*%
X176270000Y-84250000D03*
%TO.P,U6,48,VIN_48*%
%TO.N,+5V*%
X178810000Y-84250000D03*
%TO.P,U6,49,VUSB_49*%
%TO.N,unconnected-(U6-VUSB-Pad49)*%
X176270000Y-81710000D03*
%TO.P,U6,50,VBAT_50*%
%TO.N,unconnected-(U6-VBAT-Pad50)*%
X133090000Y-71550000D03*
%TO.P,U6,51,3V3_51*%
%TO.N,unconnected-(U6-3V3-Pad51)*%
X133090000Y-74090000D03*
%TO.P,U6,52,GND_52*%
%TO.N,GND*%
X133090000Y-76630000D03*
%TO.P,U6,53,PROGRAM_53*%
%TO.N,unconnected-(U6-PROGRAM-Pad53)*%
X133090000Y-79170000D03*
%TO.P,U6,54,ON_OFF_54*%
%TO.N,unconnected-(U6-ON_OFF-Pad54)*%
X133090000Y-81710000D03*
D14*
%TO.P,U6,55,5V_55*%
%TO.N,unconnected-(U6-5V-Pad55)*%
X172510800Y-72060800D03*
D15*
%TO.P,U6,56,D-_56*%
%TO.N,unconnected-(U6-D--Pad56)*%
X169970800Y-72060800D03*
%TO.P,U6,57,D+_57*%
%TO.N,unconnected-(U6-D+-Pad57)*%
X167430800Y-72060800D03*
%TO.P,U6,58,GND_58*%
%TO.N,GND*%
X164890800Y-72060800D03*
%TO.P,U6,59,GND_59*%
X162350800Y-72060800D03*
D16*
%TO.P,U6,60,R+_60*%
%TO.N,unconnected-(U6-R+-Pad60)*%
X165840000Y-81811600D03*
D17*
%TO.P,U6,61,LED_61*%
%TO.N,unconnected-(U6-LED-Pad61)*%
X165840000Y-79811600D03*
%TO.P,U6,62,T-_62*%
%TO.N,unconnected-(U6-T--Pad62)*%
X165840000Y-77811600D03*
%TO.P,U6,63,T+_63*%
%TO.N,unconnected-(U6-T+-Pad63)*%
X163840000Y-77811600D03*
%TO.P,U6,64,GND_64*%
%TO.N,GND*%
X163840000Y-79811600D03*
%TO.P,U6,65,R-_65*%
%TO.N,unconnected-(U6-R--Pad65)*%
X163840000Y-81811600D03*
%TO.P,U6,66,D-_66*%
%TO.N,unconnected-(U6-D--Pad66)*%
X178080000Y-77900000D03*
%TO.P,U6,67,D+_67*%
%TO.N,unconnected-(U6-D+-Pad67)*%
X178080000Y-75360000D03*
%TD*%
D13*
%TO.P,J3,1,Pin_1_1*%
%TO.N,GND*%
X178000000Y-95000000D03*
%TO.P,J3,2,Pin_2_2*%
%TO.N,+5V*%
X178000000Y-90000000D03*
%TD*%
D10*
%TO.P,H4,1,1_1*%
%TO.N,GND*%
X123250000Y-60750000D03*
%TD*%
%TO.P,H1,1,1_1*%
%TO.N,GND*%
X123250000Y-114250000D03*
%TD*%
D13*
%TO.P,J5,1,Pin_1_1*%
%TO.N,/Pyro 2/PYRO+*%
X121750000Y-89750000D03*
%TO.P,J5,2,Pin_2_2*%
%TO.N,/Pyro 2/PYRO-*%
X121750000Y-94750000D03*
%TD*%
D18*
%TO.P,U4,1,VDDIO_1*%
%TO.N,+3.3V*%
X156012500Y-61500000D03*
%TO.P,U4,2,SCK_2*%
%TO.N,/Barometer/SCK*%
X156012500Y-62000000D03*
D19*
%TO.P,U4,3,VSS_3*%
%TO.N,GND*%
X155750000Y-62512500D03*
%TO.P,U4,4,SDI_4*%
%TO.N,/Barometer/SDI*%
X155250000Y-62512500D03*
%TO.P,U4,5,SDO_5*%
%TO.N,/Barometer/SDO*%
X154750000Y-62512500D03*
D18*
%TO.P,U4,6,CSB_6*%
%TO.N,/CS_BARO*%
X154487500Y-62000000D03*
%TO.P,U4,7,INT_7*%
%TO.N,/INT_BARO*%
X154487500Y-61500000D03*
D19*
%TO.P,U4,8,VSS__1_8*%
%TO.N,GND*%
X154750000Y-60987500D03*
%TO.P,U4,9,VSS__2_9*%
X155250000Y-60987500D03*
%TO.P,U4,10,VDD_10*%
%TO.N,+3.3V*%
X155750000Y-60987500D03*
%TD*%
D20*
%TO.P,R7,1*%
%TO.N,/MCU/VDIV_BATT*%
X163500000Y-88925000D03*
%TO.P,R7,2*%
%TO.N,GND*%
X163500000Y-90575000D03*
%TD*%
%TO.P,R32,1*%
%TO.N,/MCU/VDIV_6V*%
X155500000Y-109850000D03*
%TO.P,R32,2*%
%TO.N,GND*%
X155500000Y-111500000D03*
%TD*%
D21*
%TO.P,C14,1*%
%TO.N,+3.3V*%
X156500000Y-58750000D03*
%TO.P,C14,2*%
%TO.N,GND*%
X154950000Y-58750000D03*
%TD*%
D22*
%TO.P,C18,1*%
%TO.N,/MCU/VDIV_5V*%
X166225000Y-86750000D03*
%TO.P,C18,2*%
%TO.N,GND*%
X167775000Y-86750000D03*
%TD*%
D23*
%TO.P,R18,1*%
%TO.N,+3.3V*%
X135000000Y-90075000D03*
%TO.P,R18,2*%
%TO.N,/MCU/VDIV_3V3*%
X135000000Y-88425000D03*
%TD*%
D22*
%TO.P,C19,1*%
%TO.N,/MCU/VDIV_3V3*%
X133225000Y-86500000D03*
%TO.P,C19,2*%
%TO.N,GND*%
X134775000Y-86500000D03*
%TD*%
D20*
%TO.P,R28,1*%
%TO.N,/MCU/BUZZER*%
X146250000Y-93925000D03*
%TO.P,R28,2*%
%TO.N,GND*%
X146250000Y-95575000D03*
%TD*%
D23*
%TO.P,R16,1*%
%TO.N,+5V*%
X155750000Y-102000000D03*
%TO.P,R16,2*%
%TO.N,/MCU/VDIV_5V*%
X155750000Y-100350000D03*
%TD*%
D24*
%TO.P,C15,1*%
%TO.N,+3.3V*%
X148750000Y-59250000D03*
%TO.P,C15,2*%
%TO.N,GND*%
X148750000Y-57700000D03*
%TD*%
D22*
%TO.P,C20,1*%
%TO.N,/MCU/VDIV_6V*%
X136725000Y-86500000D03*
%TO.P,C20,2*%
%TO.N,GND*%
X138275000Y-86500000D03*
%TD*%
D25*
%TO.P,U5,1,SDO/SA0_1*%
%TO.N,/Barometer/SDO*%
X148789700Y-62848801D03*
%TO.P,U5,2,SDX_2*%
%TO.N,GND*%
X148789700Y-62348800D03*
%TO.P,U5,3,SCX_3*%
X148789700Y-61848800D03*
%TO.P,U5,4,INT1_4*%
%TO.N,/INT_IMU_1*%
X148789700Y-61348799D03*
D26*
%TO.P,U5,5,VDDIO_5*%
%TO.N,+3.3V*%
X149500001Y-61142500D03*
%TO.P,U5,6,GND_6*%
%TO.N,GND*%
X150000000Y-61142500D03*
%TO.P,U5,7,GND_7*%
X150499999Y-61142500D03*
D25*
%TO.P,U5,8,VDD_8*%
%TO.N,+3.3V*%
X151210300Y-61348799D03*
%TO.P,U5,9,INT2_9*%
%TO.N,/INT_IMU_2*%
X151210300Y-61848800D03*
%TO.P,U5,10,OCS_AUX_10*%
%TO.N,unconnected-(U5-OCS_AUX-Pad10)*%
X151210300Y-62348800D03*
%TO.P,U5,11,SDO_AUX_11*%
%TO.N,unconnected-(U5-SDO_AUX-Pad11)*%
X151210300Y-62848801D03*
D26*
%TO.P,U5,12,CS_12*%
%TO.N,/CS_IMU*%
X150499999Y-63055100D03*
%TO.P,U5,13,SCL_13*%
%TO.N,/Barometer/SCK*%
X150000000Y-63055100D03*
%TO.P,U5,14,SDA_14*%
%TO.N,/Barometer/SDI*%
X149500001Y-63055100D03*
%TD*%
D23*
%TO.P,R30,1*%
%TO.N,+6V*%
X157250000Y-111500000D03*
%TO.P,R30,2*%
%TO.N,/MCU/VDIV_6V*%
X157250000Y-109850000D03*
%TD*%
%TO.P,R6,1*%
%TO.N,/Power/VIN*%
X161750000Y-90575000D03*
%TO.P,R6,2*%
%TO.N,/MCU/VDIV_BATT*%
X161750000Y-88925000D03*
%TD*%
D27*
%TO.P,BZ1,1,-_1*%
%TO.N,/MCU/BUZZER*%
X148750000Y-93000000D03*
%TO.P,BZ1,2,+_2*%
%TO.N,GND*%
X157450000Y-93000000D03*
%TD*%
D28*
%TO.P,C4,1*%
%TO.N,+3.3V*%
X158250000Y-60475000D03*
%TO.P,C4,2*%
%TO.N,GND*%
X158250000Y-62025000D03*
%TD*%
D24*
%TO.P,C13,1*%
%TO.N,+3.3V*%
X151000000Y-59373800D03*
%TO.P,C13,2*%
%TO.N,GND*%
X151000000Y-57823800D03*
%TD*%
D20*
%TO.P,R17,1*%
%TO.N,/MCU/VDIV_5V*%
X157750000Y-100425000D03*
%TO.P,R17,2*%
%TO.N,GND*%
X157750000Y-102075000D03*
%TD*%
D21*
%TO.P,C12,1*%
%TO.N,/MCU/VDIV_BATT*%
X163525000Y-86750000D03*
%TO.P,C12,2*%
%TO.N,GND*%
X161975000Y-86750000D03*
%TD*%
D20*
%TO.P,R19,1*%
%TO.N,/MCU/VDIV_3V3*%
X133250000Y-88425000D03*
%TO.P,R19,2*%
%TO.N,GND*%
X133250000Y-90075000D03*
%TD*%
D29*
%TO.N,GND*%
X146200000Y-100400000D03*
X149000000Y-100000000D03*
X155400000Y-96600000D03*
%TO.N,/Power/VIN*%
X130600000Y-86800000D03*
X129600000Y-99200000D03*
D30*
X161600000Y-108750000D03*
D29*
X162200000Y-100000000D03*
D30*
X150988600Y-107811400D03*
D29*
X130600000Y-87600000D03*
X129800000Y-86800000D03*
X169000000Y-114200000D03*
X130400000Y-98400000D03*
X163800000Y-100000000D03*
X163000000Y-100000000D03*
X129600000Y-98400000D03*
D30*
X149800000Y-107811400D03*
X162800000Y-108750000D03*
D29*
X129800000Y-87600000D03*
X168900000Y-115100000D03*
D30*
X161600000Y-107600000D03*
D29*
X164600000Y-100000000D03*
D30*
X162800000Y-107600000D03*
D29*
X130400000Y-99200000D03*
%TO.N,GND*%
X143150735Y-91750735D03*
X166600000Y-117400000D03*
X132600000Y-103800000D03*
X169600000Y-87000000D03*
X127600000Y-108400000D03*
X154000000Y-112000000D03*
X165400000Y-102200000D03*
X133800000Y-103800000D03*
X166200000Y-101400000D03*
X158200000Y-63400000D03*
X149600000Y-95800000D03*
X164800000Y-87800000D03*
X132600000Y-92200000D03*
X127400000Y-97400000D03*
X139800000Y-96400000D03*
X132600000Y-102800000D03*
X144600000Y-60600000D03*
X131800000Y-91400000D03*
X161400000Y-101800000D03*
X136200000Y-114400000D03*
X169600000Y-108400000D03*
X135400000Y-114400000D03*
X145800000Y-103600000D03*
X166200000Y-102200000D03*
X143600000Y-103000000D03*
X145700000Y-92200000D03*
X162400000Y-112200000D03*
X145800000Y-102800000D03*
X165400000Y-101400000D03*
X156000000Y-63400000D03*
X145000000Y-103600000D03*
X152000000Y-58200000D03*
X163200000Y-103600000D03*
X162400000Y-116400000D03*
X154400000Y-91000000D03*
X133800000Y-102800000D03*
X154800000Y-60000000D03*
X162400000Y-113000000D03*
X143933700Y-104466300D03*
X136200000Y-113600000D03*
X136000000Y-87400000D03*
X169600000Y-110000000D03*
X135400000Y-113600000D03*
X161400000Y-102800000D03*
X162200000Y-101800000D03*
X168000000Y-94800000D03*
X139800000Y-106800000D03*
X145000000Y-102800000D03*
X142800000Y-107800000D03*
X132600000Y-91400000D03*
X147600000Y-58400000D03*
X150000000Y-60000000D03*
X147600000Y-62000000D03*
X131800000Y-92200000D03*
X162400000Y-115600000D03*
X135800000Y-99000000D03*
X163200000Y-105400000D03*
X169600000Y-109200000D03*
X162200000Y-102800000D03*
%TO.N,/Pyro 1/PYRO-*%
X131800000Y-109000000D03*
X130600000Y-108200000D03*
X129800000Y-108200000D03*
X130600000Y-109000000D03*
X132600000Y-108200000D03*
X129800000Y-109000000D03*
X131800000Y-108200000D03*
X132600000Y-109000000D03*
%TO.N,/Indication/SIGNAL*%
X143500000Y-73750000D03*
%TO.N,+3.3V*%
X142950000Y-97250000D03*
X140000000Y-95200000D03*
X157800000Y-59000000D03*
X137800000Y-82000000D03*
X146800000Y-59000000D03*
%TO.N,/Barometer/SDI*%
X151000000Y-66000000D03*
%TO.N,/INT_NRF*%
X128500000Y-66500000D03*
%TO.N,+5V*%
X153900000Y-102500000D03*
D30*
%TO.N,/Reverse Polarity/BAT+*%
X173000000Y-99700000D03*
X171600000Y-99700000D03*
X168800000Y-99700000D03*
X170200000Y-99700000D03*
D29*
%TO.N,/Pyro 2/PYRO+*%
X126800000Y-92000000D03*
X126000000Y-90200000D03*
X126800000Y-90200000D03*
X126000000Y-92000000D03*
%TO.N,/Pyro 1/PYRO+*%
X125400000Y-101600000D03*
X125400000Y-102600000D03*
X126400000Y-102600000D03*
X126400000Y-101600000D03*
X125400000Y-100600000D03*
X126400000Y-100600000D03*
%TO.N,Net-(J7-Pin_1)*%
X159750000Y-97250000D03*
X159250000Y-89250000D03*
%TO.N,+6V*%
X172000000Y-104600000D03*
X164400000Y-115600000D03*
X163600000Y-114800000D03*
X164400000Y-114800000D03*
X171000000Y-104600000D03*
X163600000Y-115600000D03*
X171000000Y-103600000D03*
X172000000Y-103600000D03*
%TO.N,/Pyro 2/PYRO-*%
X130600000Y-96600000D03*
X129800000Y-95800000D03*
X132600000Y-95800000D03*
X131800000Y-95800000D03*
X132600000Y-96600000D03*
X130600000Y-95800000D03*
X129800000Y-96600000D03*
X131800000Y-96600000D03*
%TO.N,Net-(J6-Pin_1)*%
X158875000Y-86375000D03*
X158500000Y-97250000D03*
%TO.N,/ARM_1*%
X141500000Y-99750000D03*
%TO.N,/INT_IMU_2*%
X152750000Y-63750000D03*
%TO.N,/CS_IMU*%
X151250000Y-64500000D03*
%TO.N,/INT_IMU_1*%
X146400000Y-61400000D03*
%TO.N,/MCU/BUZZER*%
X140000000Y-77800000D03*
%TO.N,/FIRE_2*%
X130600000Y-93400000D03*
X125800000Y-93400000D03*
%TO.N,/Indication/B*%
X143800000Y-80600000D03*
%TD*%
%TO.N,/Power/VIN*%
D31*
X161750000Y-99550000D02*
X162200000Y-100000000D01*
X161750000Y-90575000D02*
X161750000Y-99550000D01*
%TO.N,GND*%
X156400000Y-93000000D02*
X154400000Y-91000000D01*
X154500000Y-111500000D02*
X154000000Y-112000000D01*
X149375000Y-95575000D02*
X149600000Y-95800000D01*
X157450000Y-93000000D02*
X156400000Y-93000000D01*
X133250000Y-90075000D02*
X133250000Y-90750000D01*
X150000000Y-61142500D02*
X150499999Y-61142500D01*
X150499999Y-61142500D02*
X150499999Y-60499999D01*
X150499999Y-60499999D02*
X150000000Y-60000000D01*
X154750000Y-60050000D02*
X154800000Y-60000000D01*
X154750000Y-60987500D02*
X154750000Y-60050000D01*
X157750000Y-102075000D02*
X160675000Y-102075000D01*
X167775000Y-86750000D02*
X169350000Y-86750000D01*
X161275000Y-89875000D02*
X162800000Y-89875000D01*
X164800000Y-89275000D02*
X164800000Y-87800000D01*
X160975000Y-89575000D02*
X161275000Y-89875000D01*
X154950000Y-58750000D02*
X154950000Y-59850000D01*
X147948800Y-62348800D02*
X147600000Y-62000000D01*
X134775000Y-86500000D02*
X135100000Y-86500000D01*
X150000000Y-61142500D02*
X150000000Y-60000000D01*
X160975000Y-87750000D02*
X160975000Y-89575000D01*
X162800000Y-89875000D02*
X163500000Y-90575000D01*
X141000000Y-86500000D02*
X143250000Y-84250000D01*
X138275000Y-86500000D02*
X141000000Y-86500000D01*
X169350000Y-86750000D02*
X169600000Y-87000000D01*
X151000000Y-57823800D02*
X151623800Y-57823800D01*
X147751200Y-61848800D02*
X147600000Y-62000000D01*
X158250000Y-62025000D02*
X158250000Y-63350000D01*
X148789700Y-62348800D02*
X147948800Y-62348800D01*
X160675000Y-102075000D02*
X161400000Y-102800000D01*
X155750000Y-62512500D02*
X155750000Y-63150000D01*
X148750000Y-57700000D02*
X148300000Y-57700000D01*
X154950000Y-59850000D02*
X154800000Y-60000000D01*
X155250000Y-60987500D02*
X154750000Y-60987500D01*
X148300000Y-57700000D02*
X147600000Y-58400000D01*
X155500000Y-111500000D02*
X154500000Y-111500000D01*
X135100000Y-86500000D02*
X136000000Y-87400000D01*
X158250000Y-63350000D02*
X158200000Y-63400000D01*
X146250000Y-95575000D02*
X149375000Y-95575000D01*
X148789700Y-61848800D02*
X148789700Y-62348800D01*
X163500000Y-90575000D02*
X164800000Y-89275000D01*
X151623800Y-57823800D02*
X152000000Y-58200000D01*
X155750000Y-63150000D02*
X156000000Y-63400000D01*
X148789700Y-61848800D02*
X147751200Y-61848800D01*
X161975000Y-86750000D02*
X160975000Y-87750000D01*
X133250000Y-90750000D02*
X132600000Y-91400000D01*
%TO.N,/Indication/SIGNAL*%
X131990000Y-72990000D02*
X128010000Y-69010000D01*
X143500000Y-73750000D02*
X142740000Y-72990000D01*
X142740000Y-72990000D02*
X131990000Y-72990000D01*
%TO.N,+3.3V*%
X151000000Y-59373800D02*
X151000000Y-60500000D01*
X137800000Y-95200000D02*
X135000000Y-92400000D01*
X151000000Y-60500000D02*
X151250000Y-60750000D01*
X158250000Y-60475000D02*
X158250000Y-59450000D01*
X151000000Y-59373800D02*
X148873800Y-59373800D01*
X158250000Y-59450000D02*
X157800000Y-59000000D01*
X156012500Y-61500000D02*
X156500000Y-61500000D01*
X156500000Y-59750000D02*
X156500000Y-58750000D01*
X135000000Y-92400000D02*
X135000000Y-90075000D01*
X132875000Y-89375000D02*
X131750000Y-88250000D01*
X149500001Y-61142500D02*
X149500000Y-60500000D01*
X148750000Y-59750000D02*
X148750000Y-59250000D01*
X157800000Y-59000000D02*
X156750000Y-59000000D01*
X151250000Y-60750000D02*
X151210300Y-60789700D01*
X149500000Y-60500000D02*
X148750000Y-59750000D01*
X148750000Y-59250000D02*
X147050000Y-59250000D01*
X140000000Y-95200000D02*
X142050000Y-97250000D01*
X155750000Y-60500000D02*
X156500000Y-59750000D01*
X134300000Y-89375000D02*
X132875000Y-89375000D01*
X157525000Y-60475000D02*
X158250000Y-60475000D01*
X148873800Y-59373800D02*
X148750000Y-59250000D01*
X132974365Y-82810000D02*
X136990000Y-82810000D01*
X142950000Y-97250000D02*
X142050000Y-97250000D01*
X156750000Y-59000000D02*
X156500000Y-58750000D01*
X140000000Y-95200000D02*
X137800000Y-95200000D01*
X147050000Y-59250000D02*
X146800000Y-59000000D01*
X136990000Y-82810000D02*
X137800000Y-82000000D01*
X131750000Y-84034365D02*
X132974365Y-82810000D01*
X135000000Y-90075000D02*
X134300000Y-89375000D01*
X131750000Y-88250000D02*
X131750000Y-84034365D01*
X156500000Y-61500000D02*
X157525000Y-60475000D01*
X151210300Y-60789700D02*
X151210300Y-61348799D01*
X155750000Y-60987500D02*
X155750000Y-60500000D01*
%TO.N,/CE_NRF*%
X133200000Y-61140000D02*
X132860000Y-61140000D01*
X132860000Y-61140000D02*
X125470000Y-68530000D01*
X125470000Y-69010000D02*
X125470000Y-68470000D01*
X125470000Y-68530000D02*
X125470000Y-69010000D01*
%TO.N,/CNS_NRF*%
X128310000Y-59990000D02*
X131810000Y-59990000D01*
X127500000Y-64440000D02*
X122930000Y-69010000D01*
X131810000Y-59990000D02*
X133200000Y-58600000D01*
X127500000Y-60800000D02*
X128310000Y-59990000D01*
X127500000Y-60800000D02*
X127500000Y-64440000D01*
%TO.N,/Barometer/SCK*%
X156500000Y-62000000D02*
X156750000Y-62250000D01*
X156000000Y-64600000D02*
X154600000Y-64600000D01*
X144690000Y-78874314D02*
X144690000Y-68600000D01*
X139490000Y-63400000D02*
X136600000Y-63400000D01*
X154600000Y-64600000D02*
X152575635Y-66624365D01*
X156012500Y-62000000D02*
X156500000Y-62000000D01*
X150000000Y-66624365D02*
X149937182Y-66687182D01*
X136600000Y-63400000D02*
X135740000Y-62540000D01*
X152575635Y-66624365D02*
X150000000Y-66624365D01*
X145790000Y-84250000D02*
X145790000Y-79974314D01*
X156750000Y-63850000D02*
X156000000Y-64600000D01*
X149937182Y-66687182D02*
X149500000Y-67124364D01*
X145790000Y-79974314D02*
X144690000Y-78874314D01*
X135740000Y-62540000D02*
X135740000Y-61140000D01*
X149500000Y-80540000D02*
X145790000Y-84250000D01*
X149500000Y-67124364D02*
X149500000Y-80540000D01*
X144690000Y-68600000D02*
X139490000Y-63400000D01*
X156750000Y-62250000D02*
X156750000Y-63850000D01*
X150000000Y-63055100D02*
X150000000Y-66624365D01*
%TO.N,/Barometer/SDI*%
X149500000Y-64250000D02*
X148330000Y-65420000D01*
X148330000Y-65420000D02*
X148330000Y-69010000D01*
X155250000Y-63250000D02*
X152500000Y-66000000D01*
X155250000Y-62512500D02*
X155250000Y-63250000D01*
X152500000Y-66000000D02*
X151000000Y-66000000D01*
X149500001Y-63055100D02*
X149500000Y-64250000D01*
%TO.N,/Barometer/SDO*%
X152000000Y-56750000D02*
X148000000Y-56750000D01*
X147401199Y-62848801D02*
X145790000Y-64460000D01*
X154750000Y-62512500D02*
X154137500Y-62512500D01*
X145790000Y-66290000D02*
X145790000Y-69010000D01*
X154137500Y-62512500D02*
X152750000Y-61125000D01*
X145790000Y-66290000D02*
X142000000Y-62500000D01*
X142000000Y-62500000D02*
X139640000Y-62500000D01*
X152750000Y-57500000D02*
X152000000Y-56750000D01*
X145790000Y-64460000D02*
X145790000Y-66290000D01*
X148789700Y-62848801D02*
X147401199Y-62848801D01*
X152750000Y-61125000D02*
X152750000Y-57500000D01*
X145790000Y-58960000D02*
X145790000Y-64460000D01*
X139640000Y-62500000D02*
X138280000Y-61140000D01*
X148000000Y-56750000D02*
X145790000Y-58960000D01*
%TO.N,/INT_NRF*%
X134360000Y-62040000D02*
X134360000Y-60893654D01*
X134360000Y-62040000D02*
X132200000Y-64200000D01*
X132200000Y-64200000D02*
X130800000Y-64200000D01*
X135453654Y-59800000D02*
X137080000Y-59800000D01*
X134360000Y-60893654D02*
X135453654Y-59800000D01*
X130800000Y-64200000D02*
X128500000Y-66500000D01*
X137080000Y-59800000D02*
X138280000Y-58600000D01*
%TO.N,+5V*%
X155750000Y-102000000D02*
X154400000Y-102000000D01*
X154400000Y-102000000D02*
X153900000Y-102500000D01*
X153900000Y-102500000D02*
X153800000Y-102600000D01*
%TO.N,Net-(J7-Pin_1)*%
X159750000Y-89750000D02*
X159250000Y-89250000D01*
X159750000Y-97250000D02*
X159750000Y-89750000D01*
%TO.N,+6V*%
X154500000Y-114250000D02*
X151955100Y-114250000D01*
X157250000Y-111500000D02*
X154500000Y-114250000D01*
%TO.N,/SCL*%
X153410000Y-79445965D02*
X162200000Y-70655965D01*
X153410000Y-84250000D02*
X153410000Y-79445965D01*
X162200000Y-70655965D02*
X162200000Y-63010000D01*
X162200000Y-63010000D02*
X164210000Y-61000000D01*
%TO.N,/RX_GPS*%
X168140000Y-60740000D02*
X168140000Y-61526346D01*
X173730000Y-64930000D02*
X173730000Y-69010000D01*
X171800000Y-63000000D02*
X173730000Y-64930000D01*
X165600000Y-59850000D02*
X167250000Y-59850000D01*
X169613654Y-63000000D02*
X171800000Y-63000000D01*
X164210000Y-58460000D02*
X165600000Y-59850000D01*
X168140000Y-61526346D02*
X169613654Y-63000000D01*
X167250000Y-59850000D02*
X168140000Y-60740000D01*
%TO.N,/SDA*%
X163450800Y-76749200D02*
X155950000Y-84250000D01*
X165010000Y-70385965D02*
X165010000Y-62740000D01*
X165010000Y-62740000D02*
X166750000Y-61000000D01*
X163450800Y-71945165D02*
X163450800Y-76749200D01*
X163450800Y-71945165D02*
X165010000Y-70385965D01*
%TO.N,/TX_GPS*%
X170480000Y-59610000D02*
X176270000Y-65400000D01*
X166750000Y-58460000D02*
X167900000Y-59610000D01*
X167900000Y-59610000D02*
X170480000Y-59610000D01*
X176270000Y-65400000D02*
X176270000Y-69010000D01*
%TO.N,Net-(J6-Pin_1)*%
X158875000Y-86375000D02*
X158500000Y-86750000D01*
X158500000Y-86750000D02*
X158500000Y-97250000D01*
%TO.N,/ARM_1*%
X122930000Y-84430000D02*
X122930000Y-84250000D01*
X141500000Y-99750000D02*
X138250000Y-99750000D01*
X138250000Y-99750000D02*
X122930000Y-84430000D01*
%TO.N,/CS_BARO*%
X153150000Y-58760618D02*
X154560619Y-57350000D01*
X157901882Y-57350000D02*
X159500000Y-58948118D01*
X159500000Y-67480000D02*
X161030000Y-69010000D01*
X153150000Y-60900000D02*
X153150000Y-58760618D01*
X154250000Y-62000000D02*
X153150000Y-60900000D01*
X159500000Y-58948118D02*
X159500000Y-67480000D01*
X154560619Y-57350000D02*
X157901882Y-57350000D01*
X154487500Y-62000000D02*
X154250000Y-62000000D01*
%TO.N,/INT_BARO*%
X154487500Y-61500000D02*
X153550000Y-60562500D01*
X153550000Y-58926304D02*
X154726304Y-57750000D01*
X153550000Y-60562500D02*
X153550000Y-58926304D01*
X159025000Y-68475000D02*
X158490000Y-69010000D01*
X154726304Y-57750000D02*
X157736196Y-57750000D01*
X157736196Y-57750000D02*
X159025000Y-59038804D01*
X159025000Y-59038804D02*
X159025000Y-68475000D01*
%TO.N,/INT_IMU_2*%
X152750000Y-62500000D02*
X152098800Y-61848800D01*
X152098800Y-61848800D02*
X151210300Y-61848800D01*
X152750000Y-63750000D02*
X152750000Y-62500000D01*
%TO.N,/CS_IMU*%
X150499999Y-63055100D02*
X150499999Y-63749999D01*
X150499999Y-63749999D02*
X151250000Y-64500000D01*
%TO.N,/INT_IMU_1*%
X146451201Y-61348799D02*
X146400000Y-61400000D01*
X148789700Y-61348799D02*
X146451201Y-61348799D01*
%TO.N,/MCU/BUZZER*%
X140200000Y-78000000D02*
X143250000Y-78000000D01*
X144690000Y-79560000D02*
X144690000Y-88940000D01*
X146250000Y-93925000D02*
X147825000Y-93925000D01*
X143250000Y-78000000D02*
X144750000Y-79500000D01*
X144690000Y-88940000D02*
X148750000Y-93000000D01*
X147825000Y-93925000D02*
X148750000Y-93000000D01*
X140000000Y-77800000D02*
X140200000Y-78000000D01*
X144750000Y-79500000D02*
X144690000Y-79560000D01*
%TO.N,/FIRE_2*%
X125800000Y-93400000D02*
X130600000Y-93400000D01*
%TO.N,/Indication/B*%
X143800000Y-80600000D02*
X132644365Y-80600000D01*
X130550000Y-82694365D02*
X130550000Y-84250000D01*
X132644365Y-80600000D02*
X130550000Y-82694365D01*
%TO.N,/MCU/VDIV_3V3*%
X135000000Y-88425000D02*
X133250000Y-88425000D01*
X133225000Y-88400000D02*
X133250000Y-88425000D01*
X133225000Y-86500000D02*
X133225000Y-88400000D01*
X133225000Y-84385000D02*
X133090000Y-84250000D01*
X133225000Y-86500000D02*
X133225000Y-84385000D01*
%TO.N,/MCU/VDIV_6V*%
X136725000Y-86500000D02*
X136725000Y-85345000D01*
X157250000Y-109850000D02*
X155500000Y-109850000D01*
X136725000Y-85345000D02*
X135630000Y-84250000D01*
X136725000Y-89475000D02*
X155500000Y-108250000D01*
X136725000Y-86500000D02*
X136725000Y-89475000D01*
X155500000Y-108250000D02*
X155500000Y-109850000D01*
%TO.N,/MCU/VDIV_BATT*%
X163500000Y-86775000D02*
X163525000Y-86750000D01*
X163500000Y-88925000D02*
X163500000Y-86775000D01*
X161750000Y-88925000D02*
X163500000Y-88925000D01*
X163525000Y-86750000D02*
X163525000Y-84295000D01*
X163525000Y-84295000D02*
X163570000Y-84250000D01*
%TO.N,/MCU/VDIV_5V*%
X155750000Y-100350000D02*
X157675000Y-100350000D01*
X166225000Y-86750000D02*
X166225000Y-86725000D01*
X164800000Y-100800000D02*
X166225000Y-99375000D01*
X166225000Y-99375000D02*
X166225000Y-86750000D01*
X157675000Y-100350000D02*
X157750000Y-100425000D01*
X157750000Y-100425000D02*
X158125000Y-100800000D01*
X166225000Y-86725000D02*
X166110000Y-86610000D01*
X166110000Y-86610000D02*
X166110000Y-84250000D01*
X158125000Y-100800000D02*
X164800000Y-100800000D01*
%TD*%
M02*
