%TF.GenerationSoftware,KiCad,Pcbnew,10.0.3*%
%TF.CreationDate,2026-06-18T22:45:39-04:00*%
%TF.ProjectId,flight_computer,666c6967-6874-45f6-936f-6d7075746572,rev?*%
%TF.SameCoordinates,Original*%
%TF.FileFunction,Soldermask,Bot*%
%TF.FilePolarity,Negative*%
%FSLAX46Y46*%
G04 Gerber Fmt 4.6, Leading zero omitted, Abs format (unit mm)*
G04 Created by KiCad (PCBNEW 10.0.3) date 2026-06-18 22:45:39*
%MOMM*%
%LPD*%
G01*
G04 APERTURE LIST*
G04 Aperture macros list*
%AMRoundRect*
0 Rectangle with rounded corners*
0 $1 Rounding radius*
0 $2 $3 $4 $5 $6 $7 $8 $9 X,Y pos of 4 corners*
0 Add a 4 corners polygon primitive as box body*
4,1,4,$2,$3,$4,$5,$6,$7,$8,$9,$2,$3,0*
0 Add four circle primitives for the rounded corners*
1,1,$1+$1,$2,$3*
1,1,$1+$1,$4,$5*
1,1,$1+$1,$6,$7*
1,1,$1+$1,$8,$9*
0 Add four rect primitives between the rounded corners*
20,1,$1+$1,$2,$3,$4,$5,0*
20,1,$1+$1,$4,$5,$6,$7,0*
20,1,$1+$1,$6,$7,$8,$9,0*
20,1,$1+$1,$8,$9,$2,$3,0*%
G04 Aperture macros list end*
%ADD10C,0.010000*%
%ADD11C,6.000000*%
%ADD12R,1.700000X1.700000*%
%ADD13C,1.700000*%
%ADD14C,2.154000*%
%ADD15R,1.600000X1.600000*%
%ADD16C,1.600000*%
%ADD17R,1.300000X1.300000*%
%ADD18C,1.300000*%
%ADD19RoundRect,0.200000X-0.275000X0.200000X-0.275000X-0.200000X0.275000X-0.200000X0.275000X0.200000X0*%
%ADD20RoundRect,0.225000X0.225000X0.250000X-0.225000X0.250000X-0.225000X-0.250000X0.225000X-0.250000X0*%
%ADD21RoundRect,0.225000X-0.225000X-0.250000X0.225000X-0.250000X0.225000X0.250000X-0.225000X0.250000X0*%
%ADD22RoundRect,0.200000X0.275000X-0.200000X0.275000X0.200000X-0.275000X0.200000X-0.275000X-0.200000X0*%
%ADD23RoundRect,0.225000X0.250000X-0.225000X0.250000X0.225000X-0.250000X0.225000X-0.250000X-0.225000X0*%
%ADD24R,0.576580X0.351536*%
%ADD25R,0.351536X0.576580*%
%ADD26R,1.300000X3.400000*%
%ADD27RoundRect,0.225000X-0.250000X0.225000X-0.250000X-0.225000X0.250000X-0.225000X0.250000X0.225000X0*%
G04 APERTURE END LIST*
D10*
%TO.C,U4*%
X154675000Y-61325000D02*
X154300000Y-61325000D01*
X154300000Y-61675000D01*
X154675000Y-61675000D01*
X154675000Y-61325000D01*
G36*
X154675000Y-61675000D02*
G01*
X154300000Y-61675000D01*
X154300000Y-61325000D01*
X154675000Y-61325000D01*
X154675000Y-61675000D01*
G37*
X154675000Y-61825000D02*
X154300000Y-61825000D01*
X154300000Y-62175000D01*
X154675000Y-62175000D01*
X154675000Y-61825000D01*
G36*
X154675000Y-62175000D02*
G01*
X154300000Y-62175000D01*
X154300000Y-61825000D01*
X154675000Y-61825000D01*
X154675000Y-62175000D01*
G37*
X154925000Y-60800000D02*
X154575000Y-60800000D01*
X154575000Y-61175000D01*
X154925000Y-61175000D01*
X154925000Y-60800000D01*
G36*
X154925000Y-61175000D02*
G01*
X154575000Y-61175000D01*
X154575000Y-60800000D01*
X154925000Y-60800000D01*
X154925000Y-61175000D01*
G37*
X154925000Y-62325000D02*
X154575000Y-62325000D01*
X154575000Y-62700000D01*
X154925000Y-62700000D01*
X154925000Y-62325000D01*
G36*
X154925000Y-62700000D02*
G01*
X154575000Y-62700000D01*
X154575000Y-62325000D01*
X154925000Y-62325000D01*
X154925000Y-62700000D01*
G37*
X155425000Y-60800000D02*
X155075000Y-60800000D01*
X155075000Y-61175000D01*
X155425000Y-61175000D01*
X155425000Y-60800000D01*
G36*
X155425000Y-61175000D02*
G01*
X155075000Y-61175000D01*
X155075000Y-60800000D01*
X155425000Y-60800000D01*
X155425000Y-61175000D01*
G37*
X155425000Y-62325000D02*
X155075000Y-62325000D01*
X155075000Y-62700000D01*
X155425000Y-62700000D01*
X155425000Y-62325000D01*
G36*
X155425000Y-62700000D02*
G01*
X155075000Y-62700000D01*
X155075000Y-62325000D01*
X155425000Y-62325000D01*
X155425000Y-62700000D01*
G37*
X155925000Y-60800000D02*
X155575000Y-60800000D01*
X155575000Y-61175000D01*
X155925000Y-61175000D01*
X155925000Y-60800000D01*
G36*
X155925000Y-61175000D02*
G01*
X155575000Y-61175000D01*
X155575000Y-60800000D01*
X155925000Y-60800000D01*
X155925000Y-61175000D01*
G37*
X155925000Y-62325000D02*
X155575000Y-62325000D01*
X155575000Y-62700000D01*
X155925000Y-62700000D01*
X155925000Y-62325000D01*
G36*
X155925000Y-62700000D02*
G01*
X155575000Y-62700000D01*
X155575000Y-62325000D01*
X155925000Y-62325000D01*
X155925000Y-62700000D01*
G37*
X156200000Y-61325000D02*
X155825000Y-61325000D01*
X155825000Y-61675000D01*
X156200000Y-61675000D01*
X156200000Y-61325000D01*
G36*
X156200000Y-61675000D02*
G01*
X155825000Y-61675000D01*
X155825000Y-61325000D01*
X156200000Y-61325000D01*
X156200000Y-61675000D01*
G37*
X156200000Y-61825000D02*
X155825000Y-61825000D01*
X155825000Y-62175000D01*
X156200000Y-62175000D01*
X156200000Y-61825000D01*
G36*
X156200000Y-62175000D02*
G01*
X155825000Y-62175000D01*
X155825000Y-61825000D01*
X156200000Y-61825000D01*
X156200000Y-62175000D01*
G37*
%TD*%
D11*
%TO.C,H3*%
X176750000Y-60750000D03*
%TD*%
D12*
%TO.C,J1*%
X130660000Y-61140000D03*
D13*
X130660000Y-58600000D03*
X133200000Y-61140000D03*
X133200000Y-58600000D03*
X135740000Y-61140000D03*
X135740000Y-58600000D03*
X138280000Y-61140000D03*
X138280000Y-58600000D03*
%TD*%
D14*
%TO.C,J2*%
X178000000Y-106250000D03*
X178000000Y-101250000D03*
%TD*%
%TO.C,J4*%
X121750000Y-101000000D03*
X121750000Y-106000000D03*
%TD*%
D11*
%TO.C,H2*%
X176750000Y-114250000D03*
%TD*%
D12*
%TO.C,J7*%
X151955100Y-111710000D03*
D13*
X151955100Y-114250000D03*
X151955100Y-116790000D03*
%TD*%
D12*
%TO.C,J9*%
X161670000Y-61000000D03*
D13*
X161670000Y-58460000D03*
X164210000Y-61000000D03*
X164210000Y-58460000D03*
X166750000Y-61000000D03*
X166750000Y-58460000D03*
X169290000Y-61000000D03*
X169290000Y-58460000D03*
%TD*%
D12*
%TO.C,J6*%
X148205100Y-111710000D03*
D13*
X148205100Y-114250000D03*
X148205100Y-116790000D03*
%TD*%
D15*
%TO.C,U6*%
X178810000Y-69010000D03*
D16*
X176270000Y-69010000D03*
X173730000Y-69010000D03*
X171190000Y-69010000D03*
X168650000Y-69010000D03*
X166110000Y-69010000D03*
X163570000Y-69010000D03*
X161030000Y-69010000D03*
X158490000Y-69010000D03*
X155950000Y-69010000D03*
X153410000Y-69010000D03*
X150870000Y-69010000D03*
X148330000Y-69010000D03*
X145790000Y-69010000D03*
X143250000Y-69010000D03*
X140710000Y-69010000D03*
X138170000Y-69010000D03*
X135630000Y-69010000D03*
X133090000Y-69010000D03*
X130550000Y-69010000D03*
X128010000Y-69010000D03*
X125470000Y-69010000D03*
X122930000Y-69010000D03*
X120390000Y-69010000D03*
X120390000Y-84250000D03*
X122930000Y-84250000D03*
X125470000Y-84250000D03*
X128010000Y-84250000D03*
X130550000Y-84250000D03*
X133090000Y-84250000D03*
X135630000Y-84250000D03*
X138170000Y-84250000D03*
X140710000Y-84250000D03*
X143250000Y-84250000D03*
X145790000Y-84250000D03*
X148330000Y-84250000D03*
X150870000Y-84250000D03*
X153410000Y-84250000D03*
X155950000Y-84250000D03*
X158490000Y-84250000D03*
X161030000Y-84250000D03*
X163570000Y-84250000D03*
X166110000Y-84250000D03*
X168650000Y-84250000D03*
X171190000Y-84250000D03*
X173730000Y-84250000D03*
X176270000Y-84250000D03*
X178810000Y-84250000D03*
X176270000Y-81710000D03*
X133090000Y-71550000D03*
X133090000Y-74090000D03*
X133090000Y-76630000D03*
X133090000Y-79170000D03*
X133090000Y-81710000D03*
D15*
X172510800Y-72060800D03*
D16*
X169970800Y-72060800D03*
X167430800Y-72060800D03*
X164890800Y-72060800D03*
X162350800Y-72060800D03*
D17*
X165840000Y-81811600D03*
D18*
X165840000Y-79811600D03*
X165840000Y-77811600D03*
X163840000Y-77811600D03*
X163840000Y-79811600D03*
X163840000Y-81811600D03*
X178080000Y-77900000D03*
X178080000Y-75360000D03*
%TD*%
D14*
%TO.C,J3*%
X178000000Y-95000000D03*
X178000000Y-90000000D03*
%TD*%
D11*
%TO.C,H4*%
X123250000Y-60750000D03*
%TD*%
%TO.C,H1*%
X123250000Y-114250000D03*
%TD*%
D14*
%TO.C,J5*%
X121750000Y-89750000D03*
X121750000Y-94750000D03*
%TD*%
D19*
%TO.C,R7*%
X163500000Y-88925000D03*
X163500000Y-90575000D03*
%TD*%
%TO.C,R32*%
X155500000Y-109850000D03*
X155500000Y-111500000D03*
%TD*%
D20*
%TO.C,C14*%
X156500000Y-58750000D03*
X154950000Y-58750000D03*
%TD*%
D21*
%TO.C,C18*%
X166225000Y-86750000D03*
X167775000Y-86750000D03*
%TD*%
D22*
%TO.C,R18*%
X135000000Y-90075000D03*
X135000000Y-88425000D03*
%TD*%
D21*
%TO.C,C19*%
X133225000Y-86500000D03*
X134775000Y-86500000D03*
%TD*%
D19*
%TO.C,R28*%
X146250000Y-93925000D03*
X146250000Y-95575000D03*
%TD*%
D22*
%TO.C,R16*%
X155750000Y-102000000D03*
X155750000Y-100350000D03*
%TD*%
D23*
%TO.C,C15*%
X148750000Y-59250000D03*
X148750000Y-57700000D03*
%TD*%
D21*
%TO.C,C20*%
X136725000Y-86500000D03*
X138275000Y-86500000D03*
%TD*%
D24*
%TO.C,U5*%
X148789700Y-62848801D03*
X148789700Y-62348800D03*
X148789700Y-61848800D03*
X148789700Y-61348799D03*
D25*
X149500001Y-61142500D03*
X150000000Y-61142500D03*
X150499999Y-61142500D03*
D24*
X151210300Y-61348799D03*
X151210300Y-61848800D03*
X151210300Y-62348800D03*
X151210300Y-62848801D03*
D25*
X150499999Y-63055100D03*
X150000000Y-63055100D03*
X149500001Y-63055100D03*
%TD*%
D22*
%TO.C,R30*%
X157250000Y-111500000D03*
X157250000Y-109850000D03*
%TD*%
%TO.C,R6*%
X161750000Y-90575000D03*
X161750000Y-88925000D03*
%TD*%
D26*
%TO.C,BZ1*%
X148750000Y-93000000D03*
X157450000Y-93000000D03*
%TD*%
D27*
%TO.C,C4*%
X158250000Y-60475000D03*
X158250000Y-62025000D03*
%TD*%
D23*
%TO.C,C13*%
X151000000Y-59373800D03*
X151000000Y-57823800D03*
%TD*%
D19*
%TO.C,R17*%
X157750000Y-100425000D03*
X157750000Y-102075000D03*
%TD*%
D20*
%TO.C,C12*%
X163525000Y-86750000D03*
X161975000Y-86750000D03*
%TD*%
D19*
%TO.C,R19*%
X133250000Y-88425000D03*
X133250000Y-90075000D03*
%TD*%
M02*
