%TF.GenerationSoftware,KiCad,Pcbnew,10.0.3*%
%TF.CreationDate,2026-06-18T22:45:39-04:00*%
%TF.ProjectId,flight_computer,666c6967-6874-45f6-936f-6d7075746572,rev?*%
%TF.SameCoordinates,Original*%
%TF.FileFunction,Paste,Bot*%
%TF.FilePolarity,Positive*%
%FSLAX46Y46*%
G04 Gerber Fmt 4.6, Leading zero omitted, Abs format (unit mm)*
G04 Created by KiCad (PCBNEW 10.0.3) date 2026-06-18 22:45:39*
%MOMM*%
%LPD*%
G01*
G04 APERTURE LIST*
G04 Aperture macros list*
%AMRoundRect*
0 Rectangle with rounded corners*
0 $1 Rounding radius*
0 $2 $3 $4 $5 $6 $7 $8 $9 X,Y pos of 4 corners*
0 Add a 4 corners polygon primitive as box body*
4,1,4,$2,$3,$4,$5,$6,$7,$8,$9,$2,$3,0*
0 Add four circle primitives for the rounded corners*
1,1,$1+$1,$2,$3*
1,1,$1+$1,$4,$5*
1,1,$1+$1,$6,$7*
1,1,$1+$1,$8,$9*
0 Add four rect primitives between the rounded corners*
20,1,$1+$1,$2,$3,$4,$5,0*
20,1,$1+$1,$4,$5,$6,$7,0*
20,1,$1+$1,$6,$7,$8,$9,0*
20,1,$1+$1,$8,$9,$2,$3,0*%
G04 Aperture macros list end*
%ADD10R,0.275000X0.250000*%
%ADD11R,0.250000X0.275000*%
%ADD12RoundRect,0.200000X-0.275000X0.200000X-0.275000X-0.200000X0.275000X-0.200000X0.275000X0.200000X0*%
%ADD13RoundRect,0.225000X0.225000X0.250000X-0.225000X0.250000X-0.225000X-0.250000X0.225000X-0.250000X0*%
%ADD14RoundRect,0.225000X-0.225000X-0.250000X0.225000X-0.250000X0.225000X0.250000X-0.225000X0.250000X0*%
%ADD15RoundRect,0.200000X0.275000X-0.200000X0.275000X0.200000X-0.275000X0.200000X-0.275000X-0.200000X0*%
%ADD16RoundRect,0.225000X0.250000X-0.225000X0.250000X0.225000X-0.250000X0.225000X-0.250000X-0.225000X0*%
%ADD17R,0.576580X0.351536*%
%ADD18R,0.351536X0.576580*%
%ADD19R,1.300000X3.400000*%
%ADD20RoundRect,0.225000X-0.250000X0.225000X-0.250000X-0.225000X0.250000X-0.225000X0.250000X0.225000X0*%
G04 APERTURE END LIST*
D10*
%TO.C,U4*%
X156012500Y-61500000D03*
X156012500Y-62000000D03*
D11*
X155750000Y-62512500D03*
X155250000Y-62512500D03*
X154750000Y-62512500D03*
D10*
X154487500Y-62000000D03*
X154487500Y-61500000D03*
D11*
X154750000Y-60987500D03*
X155250000Y-60987500D03*
X155750000Y-60987500D03*
%TD*%
D12*
%TO.C,R7*%
X163500000Y-88925000D03*
X163500000Y-90575000D03*
%TD*%
%TO.C,R32*%
X155500000Y-109850000D03*
X155500000Y-111500000D03*
%TD*%
D13*
%TO.C,C14*%
X156500000Y-58750000D03*
X154950000Y-58750000D03*
%TD*%
D14*
%TO.C,C18*%
X166225000Y-86750000D03*
X167775000Y-86750000D03*
%TD*%
D15*
%TO.C,R18*%
X135000000Y-90075000D03*
X135000000Y-88425000D03*
%TD*%
D14*
%TO.C,C19*%
X133225000Y-86500000D03*
X134775000Y-86500000D03*
%TD*%
D12*
%TO.C,R28*%
X146250000Y-93925000D03*
X146250000Y-95575000D03*
%TD*%
D15*
%TO.C,R16*%
X155750000Y-102000000D03*
X155750000Y-100350000D03*
%TD*%
D16*
%TO.C,C15*%
X148750000Y-59250000D03*
X148750000Y-57700000D03*
%TD*%
D14*
%TO.C,C20*%
X136725000Y-86500000D03*
X138275000Y-86500000D03*
%TD*%
D17*
%TO.C,U5*%
X148789700Y-62848801D03*
X148789700Y-62348800D03*
X148789700Y-61848800D03*
X148789700Y-61348799D03*
D18*
X149500001Y-61142500D03*
X150000000Y-61142500D03*
X150499999Y-61142500D03*
D17*
X151210300Y-61348799D03*
X151210300Y-61848800D03*
X151210300Y-62348800D03*
X151210300Y-62848801D03*
D18*
X150499999Y-63055100D03*
X150000000Y-63055100D03*
X149500001Y-63055100D03*
%TD*%
D15*
%TO.C,R30*%
X157250000Y-111500000D03*
X157250000Y-109850000D03*
%TD*%
%TO.C,R6*%
X161750000Y-90575000D03*
X161750000Y-88925000D03*
%TD*%
D19*
%TO.C,BZ1*%
X148750000Y-93000000D03*
X157450000Y-93000000D03*
%TD*%
D20*
%TO.C,C4*%
X158250000Y-60475000D03*
X158250000Y-62025000D03*
%TD*%
D16*
%TO.C,C13*%
X151000000Y-59373800D03*
X151000000Y-57823800D03*
%TD*%
D12*
%TO.C,R17*%
X157750000Y-100425000D03*
X157750000Y-102075000D03*
%TD*%
D13*
%TO.C,C12*%
X163525000Y-86750000D03*
X161975000Y-86750000D03*
%TD*%
D12*
%TO.C,R19*%
X133250000Y-88425000D03*
X133250000Y-90075000D03*
%TD*%
M02*
