%TF.GenerationSoftware,KiCad,Pcbnew,10.0.3*%
%TF.CreationDate,2026-06-18T22:45:39-04:00*%
%TF.ProjectId,flight_computer,666c6967-6874-45f6-936f-6d7075746572,rev?*%
%TF.SameCoordinates,Original*%
%TF.FileFunction,Legend,Top*%
%TF.FilePolarity,Positive*%
%FSLAX46Y46*%
G04 Gerber Fmt 4.6, Leading zero omitted, Abs format (unit mm)*
G04 Created by KiCad (PCBNEW 10.0.3) date 2026-06-18 22:45:39*
%MOMM*%
%LPD*%
G01*
G04 APERTURE LIST*
%ADD10C,0.175000*%
%ADD11C,0.250000*%
%ADD12C,0.150000*%
%ADD13C,0.200000*%
%ADD14C,0.127000*%
%ADD15C,0.120000*%
%ADD16C,0.152400*%
%ADD17C,0.000000*%
%ADD18C,0.100000*%
G04 APERTURE END LIST*
D10*
X132881797Y-56838566D02*
X132848464Y-56871900D01*
X132848464Y-56871900D02*
X132748464Y-56905233D01*
X132748464Y-56905233D02*
X132681797Y-56905233D01*
X132681797Y-56905233D02*
X132581797Y-56871900D01*
X132581797Y-56871900D02*
X132515131Y-56805233D01*
X132515131Y-56805233D02*
X132481797Y-56738566D01*
X132481797Y-56738566D02*
X132448464Y-56605233D01*
X132448464Y-56605233D02*
X132448464Y-56505233D01*
X132448464Y-56505233D02*
X132481797Y-56371900D01*
X132481797Y-56371900D02*
X132515131Y-56305233D01*
X132515131Y-56305233D02*
X132581797Y-56238566D01*
X132581797Y-56238566D02*
X132681797Y-56205233D01*
X132681797Y-56205233D02*
X132748464Y-56205233D01*
X132748464Y-56205233D02*
X132848464Y-56238566D01*
X132848464Y-56238566D02*
X132881797Y-56271900D01*
X133181797Y-56905233D02*
X133181797Y-56205233D01*
X133181797Y-56205233D02*
X133581797Y-56905233D01*
X133581797Y-56905233D02*
X133581797Y-56205233D01*
X133881797Y-56871900D02*
X133981797Y-56905233D01*
X133981797Y-56905233D02*
X134148464Y-56905233D01*
X134148464Y-56905233D02*
X134215130Y-56871900D01*
X134215130Y-56871900D02*
X134248464Y-56838566D01*
X134248464Y-56838566D02*
X134281797Y-56771900D01*
X134281797Y-56771900D02*
X134281797Y-56705233D01*
X134281797Y-56705233D02*
X134248464Y-56638566D01*
X134248464Y-56638566D02*
X134215130Y-56605233D01*
X134215130Y-56605233D02*
X134148464Y-56571900D01*
X134148464Y-56571900D02*
X134015130Y-56538566D01*
X134015130Y-56538566D02*
X133948464Y-56505233D01*
X133948464Y-56505233D02*
X133915130Y-56471900D01*
X133915130Y-56471900D02*
X133881797Y-56405233D01*
X133881797Y-56405233D02*
X133881797Y-56338566D01*
X133881797Y-56338566D02*
X133915130Y-56271900D01*
X133915130Y-56271900D02*
X133948464Y-56238566D01*
X133948464Y-56238566D02*
X134015130Y-56205233D01*
X134015130Y-56205233D02*
X134181797Y-56205233D01*
X134181797Y-56205233D02*
X134281797Y-56238566D01*
X134848464Y-63671900D02*
X134948464Y-63705233D01*
X134948464Y-63705233D02*
X135115131Y-63705233D01*
X135115131Y-63705233D02*
X135181797Y-63671900D01*
X135181797Y-63671900D02*
X135215131Y-63638566D01*
X135215131Y-63638566D02*
X135248464Y-63571900D01*
X135248464Y-63571900D02*
X135248464Y-63505233D01*
X135248464Y-63505233D02*
X135215131Y-63438566D01*
X135215131Y-63438566D02*
X135181797Y-63405233D01*
X135181797Y-63405233D02*
X135115131Y-63371900D01*
X135115131Y-63371900D02*
X134981797Y-63338566D01*
X134981797Y-63338566D02*
X134915131Y-63305233D01*
X134915131Y-63305233D02*
X134881797Y-63271900D01*
X134881797Y-63271900D02*
X134848464Y-63205233D01*
X134848464Y-63205233D02*
X134848464Y-63138566D01*
X134848464Y-63138566D02*
X134881797Y-63071900D01*
X134881797Y-63071900D02*
X134915131Y-63038566D01*
X134915131Y-63038566D02*
X134981797Y-63005233D01*
X134981797Y-63005233D02*
X135148464Y-63005233D01*
X135148464Y-63005233D02*
X135248464Y-63038566D01*
X135948464Y-63638566D02*
X135915131Y-63671900D01*
X135915131Y-63671900D02*
X135815131Y-63705233D01*
X135815131Y-63705233D02*
X135748464Y-63705233D01*
X135748464Y-63705233D02*
X135648464Y-63671900D01*
X135648464Y-63671900D02*
X135581798Y-63605233D01*
X135581798Y-63605233D02*
X135548464Y-63538566D01*
X135548464Y-63538566D02*
X135515131Y-63405233D01*
X135515131Y-63405233D02*
X135515131Y-63305233D01*
X135515131Y-63305233D02*
X135548464Y-63171900D01*
X135548464Y-63171900D02*
X135581798Y-63105233D01*
X135581798Y-63105233D02*
X135648464Y-63038566D01*
X135648464Y-63038566D02*
X135748464Y-63005233D01*
X135748464Y-63005233D02*
X135815131Y-63005233D01*
X135815131Y-63005233D02*
X135915131Y-63038566D01*
X135915131Y-63038566D02*
X135948464Y-63071900D01*
X136248464Y-63705233D02*
X136248464Y-63005233D01*
X136648464Y-63705233D02*
X136348464Y-63305233D01*
X136648464Y-63005233D02*
X136248464Y-63405233D01*
X135481797Y-56905233D02*
X135481797Y-56205233D01*
X135481797Y-56205233D02*
X135648464Y-56205233D01*
X135648464Y-56205233D02*
X135748464Y-56238566D01*
X135748464Y-56238566D02*
X135815131Y-56305233D01*
X135815131Y-56305233D02*
X135848464Y-56371900D01*
X135848464Y-56371900D02*
X135881797Y-56505233D01*
X135881797Y-56505233D02*
X135881797Y-56605233D01*
X135881797Y-56605233D02*
X135848464Y-56738566D01*
X135848464Y-56738566D02*
X135815131Y-56805233D01*
X135815131Y-56805233D02*
X135748464Y-56871900D01*
X135748464Y-56871900D02*
X135648464Y-56905233D01*
X135648464Y-56905233D02*
X135481797Y-56905233D01*
X136181797Y-56905233D02*
X136181797Y-56205233D01*
X137881797Y-56905233D02*
X137881797Y-56205233D01*
X138215130Y-56905233D02*
X138215130Y-56205233D01*
X138215130Y-56205233D02*
X138615130Y-56905233D01*
X138615130Y-56905233D02*
X138615130Y-56205233D01*
X138848463Y-56205233D02*
X139248463Y-56205233D01*
X139048463Y-56905233D02*
X139048463Y-56205233D01*
X137881797Y-63705233D02*
X137881797Y-63005233D01*
X137881797Y-63005233D02*
X138048464Y-63005233D01*
X138048464Y-63005233D02*
X138148464Y-63038566D01*
X138148464Y-63038566D02*
X138215131Y-63105233D01*
X138215131Y-63105233D02*
X138248464Y-63171900D01*
X138248464Y-63171900D02*
X138281797Y-63305233D01*
X138281797Y-63305233D02*
X138281797Y-63405233D01*
X138281797Y-63405233D02*
X138248464Y-63538566D01*
X138248464Y-63538566D02*
X138215131Y-63605233D01*
X138215131Y-63605233D02*
X138148464Y-63671900D01*
X138148464Y-63671900D02*
X138048464Y-63705233D01*
X138048464Y-63705233D02*
X137881797Y-63705233D01*
X138715131Y-63005233D02*
X138848464Y-63005233D01*
X138848464Y-63005233D02*
X138915131Y-63038566D01*
X138915131Y-63038566D02*
X138981797Y-63105233D01*
X138981797Y-63105233D02*
X139015131Y-63238566D01*
X139015131Y-63238566D02*
X139015131Y-63471900D01*
X139015131Y-63471900D02*
X138981797Y-63605233D01*
X138981797Y-63605233D02*
X138915131Y-63671900D01*
X138915131Y-63671900D02*
X138848464Y-63705233D01*
X138848464Y-63705233D02*
X138715131Y-63705233D01*
X138715131Y-63705233D02*
X138648464Y-63671900D01*
X138648464Y-63671900D02*
X138581797Y-63605233D01*
X138581797Y-63605233D02*
X138548464Y-63471900D01*
X138548464Y-63471900D02*
X138548464Y-63238566D01*
X138548464Y-63238566D02*
X138581797Y-63105233D01*
X138581797Y-63105233D02*
X138648464Y-63038566D01*
X138648464Y-63038566D02*
X138715131Y-63005233D01*
X163881797Y-56705233D02*
X163648464Y-56371900D01*
X163481797Y-56705233D02*
X163481797Y-56005233D01*
X163481797Y-56005233D02*
X163748464Y-56005233D01*
X163748464Y-56005233D02*
X163815131Y-56038566D01*
X163815131Y-56038566D02*
X163848464Y-56071900D01*
X163848464Y-56071900D02*
X163881797Y-56138566D01*
X163881797Y-56138566D02*
X163881797Y-56238566D01*
X163881797Y-56238566D02*
X163848464Y-56305233D01*
X163848464Y-56305233D02*
X163815131Y-56338566D01*
X163815131Y-56338566D02*
X163748464Y-56371900D01*
X163748464Y-56371900D02*
X163481797Y-56371900D01*
X164115131Y-56005233D02*
X164581797Y-56705233D01*
X164581797Y-56005233D02*
X164115131Y-56705233D01*
X163448464Y-63471900D02*
X163548464Y-63505233D01*
X163548464Y-63505233D02*
X163715131Y-63505233D01*
X163715131Y-63505233D02*
X163781797Y-63471900D01*
X163781797Y-63471900D02*
X163815131Y-63438566D01*
X163815131Y-63438566D02*
X163848464Y-63371900D01*
X163848464Y-63371900D02*
X163848464Y-63305233D01*
X163848464Y-63305233D02*
X163815131Y-63238566D01*
X163815131Y-63238566D02*
X163781797Y-63205233D01*
X163781797Y-63205233D02*
X163715131Y-63171900D01*
X163715131Y-63171900D02*
X163581797Y-63138566D01*
X163581797Y-63138566D02*
X163515131Y-63105233D01*
X163515131Y-63105233D02*
X163481797Y-63071900D01*
X163481797Y-63071900D02*
X163448464Y-63005233D01*
X163448464Y-63005233D02*
X163448464Y-62938566D01*
X163448464Y-62938566D02*
X163481797Y-62871900D01*
X163481797Y-62871900D02*
X163515131Y-62838566D01*
X163515131Y-62838566D02*
X163581797Y-62805233D01*
X163581797Y-62805233D02*
X163748464Y-62805233D01*
X163748464Y-62805233D02*
X163848464Y-62838566D01*
X164548464Y-63438566D02*
X164515131Y-63471900D01*
X164515131Y-63471900D02*
X164415131Y-63505233D01*
X164415131Y-63505233D02*
X164348464Y-63505233D01*
X164348464Y-63505233D02*
X164248464Y-63471900D01*
X164248464Y-63471900D02*
X164181798Y-63405233D01*
X164181798Y-63405233D02*
X164148464Y-63338566D01*
X164148464Y-63338566D02*
X164115131Y-63205233D01*
X164115131Y-63205233D02*
X164115131Y-63105233D01*
X164115131Y-63105233D02*
X164148464Y-62971900D01*
X164148464Y-62971900D02*
X164181798Y-62905233D01*
X164181798Y-62905233D02*
X164248464Y-62838566D01*
X164248464Y-62838566D02*
X164348464Y-62805233D01*
X164348464Y-62805233D02*
X164415131Y-62805233D01*
X164415131Y-62805233D02*
X164515131Y-62838566D01*
X164515131Y-62838566D02*
X164548464Y-62871900D01*
X165181798Y-63505233D02*
X164848464Y-63505233D01*
X164848464Y-63505233D02*
X164848464Y-62805233D01*
X166381797Y-56005233D02*
X166781797Y-56005233D01*
X166581797Y-56705233D02*
X166581797Y-56005233D01*
X166948464Y-56005233D02*
X167415130Y-56705233D01*
X167415130Y-56005233D02*
X166948464Y-56705233D01*
X166448464Y-63471900D02*
X166548464Y-63505233D01*
X166548464Y-63505233D02*
X166715131Y-63505233D01*
X166715131Y-63505233D02*
X166781797Y-63471900D01*
X166781797Y-63471900D02*
X166815131Y-63438566D01*
X166815131Y-63438566D02*
X166848464Y-63371900D01*
X166848464Y-63371900D02*
X166848464Y-63305233D01*
X166848464Y-63305233D02*
X166815131Y-63238566D01*
X166815131Y-63238566D02*
X166781797Y-63205233D01*
X166781797Y-63205233D02*
X166715131Y-63171900D01*
X166715131Y-63171900D02*
X166581797Y-63138566D01*
X166581797Y-63138566D02*
X166515131Y-63105233D01*
X166515131Y-63105233D02*
X166481797Y-63071900D01*
X166481797Y-63071900D02*
X166448464Y-63005233D01*
X166448464Y-63005233D02*
X166448464Y-62938566D01*
X166448464Y-62938566D02*
X166481797Y-62871900D01*
X166481797Y-62871900D02*
X166515131Y-62838566D01*
X166515131Y-62838566D02*
X166581797Y-62805233D01*
X166581797Y-62805233D02*
X166748464Y-62805233D01*
X166748464Y-62805233D02*
X166848464Y-62838566D01*
X167148464Y-63505233D02*
X167148464Y-62805233D01*
X167148464Y-62805233D02*
X167315131Y-62805233D01*
X167315131Y-62805233D02*
X167415131Y-62838566D01*
X167415131Y-62838566D02*
X167481798Y-62905233D01*
X167481798Y-62905233D02*
X167515131Y-62971900D01*
X167515131Y-62971900D02*
X167548464Y-63105233D01*
X167548464Y-63105233D02*
X167548464Y-63205233D01*
X167548464Y-63205233D02*
X167515131Y-63338566D01*
X167515131Y-63338566D02*
X167481798Y-63405233D01*
X167481798Y-63405233D02*
X167415131Y-63471900D01*
X167415131Y-63471900D02*
X167315131Y-63505233D01*
X167315131Y-63505233D02*
X167148464Y-63505233D01*
X167815131Y-63305233D02*
X168148464Y-63305233D01*
X167748464Y-63505233D02*
X167981798Y-62805233D01*
X167981798Y-62805233D02*
X168215131Y-63505233D01*
X169081797Y-56438566D02*
X169615131Y-56438566D01*
X169081797Y-63238566D02*
X169615131Y-63238566D01*
X130918202Y-56638566D02*
X130384869Y-56638566D01*
X130651535Y-56905233D02*
X130651535Y-56371900D01*
X161918202Y-56438566D02*
X161384869Y-56438566D01*
X161651535Y-56705233D02*
X161651535Y-56171900D01*
X161918202Y-63238566D02*
X161384869Y-63238566D01*
X161651535Y-63505233D02*
X161651535Y-62971900D01*
X132924654Y-63638566D02*
X132877035Y-63671900D01*
X132877035Y-63671900D02*
X132734178Y-63705233D01*
X132734178Y-63705233D02*
X132638940Y-63705233D01*
X132638940Y-63705233D02*
X132496083Y-63671900D01*
X132496083Y-63671900D02*
X132400845Y-63605233D01*
X132400845Y-63605233D02*
X132353226Y-63538566D01*
X132353226Y-63538566D02*
X132305607Y-63405233D01*
X132305607Y-63405233D02*
X132305607Y-63305233D01*
X132305607Y-63305233D02*
X132353226Y-63171900D01*
X132353226Y-63171900D02*
X132400845Y-63105233D01*
X132400845Y-63105233D02*
X132496083Y-63038566D01*
X132496083Y-63038566D02*
X132638940Y-63005233D01*
X132638940Y-63005233D02*
X132734178Y-63005233D01*
X132734178Y-63005233D02*
X132877035Y-63038566D01*
X132877035Y-63038566D02*
X132924654Y-63071900D01*
X133353226Y-63338566D02*
X133686559Y-63338566D01*
X133829416Y-63705233D02*
X133353226Y-63705233D01*
X133353226Y-63705233D02*
X133353226Y-63005233D01*
X133353226Y-63005233D02*
X133829416Y-63005233D01*
X130846773Y-63438566D02*
X130084869Y-63438566D01*
X156380107Y-89305233D02*
X156380107Y-88605233D01*
X156380107Y-88605233D02*
X156761059Y-88605233D01*
X156761059Y-88605233D02*
X156856297Y-88638566D01*
X156856297Y-88638566D02*
X156903916Y-88671900D01*
X156903916Y-88671900D02*
X156951535Y-88738566D01*
X156951535Y-88738566D02*
X156951535Y-88838566D01*
X156951535Y-88838566D02*
X156903916Y-88905233D01*
X156903916Y-88905233D02*
X156856297Y-88938566D01*
X156856297Y-88938566D02*
X156761059Y-88971900D01*
X156761059Y-88971900D02*
X156380107Y-88971900D01*
X157284869Y-88605233D02*
X157522964Y-89305233D01*
X157522964Y-89305233D02*
X157713440Y-88805233D01*
X157713440Y-88805233D02*
X157903916Y-89305233D01*
X157903916Y-89305233D02*
X158142012Y-88605233D01*
X159094392Y-89305233D02*
X158761059Y-88971900D01*
X158522964Y-89305233D02*
X158522964Y-88605233D01*
X158522964Y-88605233D02*
X158903916Y-88605233D01*
X158903916Y-88605233D02*
X158999154Y-88638566D01*
X158999154Y-88638566D02*
X159046773Y-88671900D01*
X159046773Y-88671900D02*
X159094392Y-88738566D01*
X159094392Y-88738566D02*
X159094392Y-88838566D01*
X159094392Y-88838566D02*
X159046773Y-88905233D01*
X159046773Y-88905233D02*
X158999154Y-88938566D01*
X158999154Y-88938566D02*
X158903916Y-88971900D01*
X158903916Y-88971900D02*
X158522964Y-88971900D01*
X157046774Y-91271900D02*
X157189631Y-91305233D01*
X157189631Y-91305233D02*
X157427726Y-91305233D01*
X157427726Y-91305233D02*
X157522964Y-91271900D01*
X157522964Y-91271900D02*
X157570583Y-91238566D01*
X157570583Y-91238566D02*
X157618202Y-91171900D01*
X157618202Y-91171900D02*
X157618202Y-91105233D01*
X157618202Y-91105233D02*
X157570583Y-91038566D01*
X157570583Y-91038566D02*
X157522964Y-91005233D01*
X157522964Y-91005233D02*
X157427726Y-90971900D01*
X157427726Y-90971900D02*
X157237250Y-90938566D01*
X157237250Y-90938566D02*
X157142012Y-90905233D01*
X157142012Y-90905233D02*
X157094393Y-90871900D01*
X157094393Y-90871900D02*
X157046774Y-90805233D01*
X157046774Y-90805233D02*
X157046774Y-90738566D01*
X157046774Y-90738566D02*
X157094393Y-90671900D01*
X157094393Y-90671900D02*
X157142012Y-90638566D01*
X157142012Y-90638566D02*
X157237250Y-90605233D01*
X157237250Y-90605233D02*
X157475345Y-90605233D01*
X157475345Y-90605233D02*
X157618202Y-90638566D01*
X158046774Y-91305233D02*
X158046774Y-90605233D01*
X159046773Y-90638566D02*
X158951535Y-90605233D01*
X158951535Y-90605233D02*
X158808678Y-90605233D01*
X158808678Y-90605233D02*
X158665821Y-90638566D01*
X158665821Y-90638566D02*
X158570583Y-90705233D01*
X158570583Y-90705233D02*
X158522964Y-90771900D01*
X158522964Y-90771900D02*
X158475345Y-90905233D01*
X158475345Y-90905233D02*
X158475345Y-91005233D01*
X158475345Y-91005233D02*
X158522964Y-91138566D01*
X158522964Y-91138566D02*
X158570583Y-91205233D01*
X158570583Y-91205233D02*
X158665821Y-91271900D01*
X158665821Y-91271900D02*
X158808678Y-91305233D01*
X158808678Y-91305233D02*
X158903916Y-91305233D01*
X158903916Y-91305233D02*
X159046773Y-91271900D01*
X159046773Y-91271900D02*
X159094392Y-91238566D01*
X159094392Y-91238566D02*
X159094392Y-91005233D01*
X159094392Y-91005233D02*
X158903916Y-91005233D01*
D11*
X173197431Y-90083666D02*
X172435527Y-90083666D01*
X172816479Y-90464619D02*
X172816479Y-89702714D01*
X173197431Y-95483666D02*
X172435527Y-95483666D01*
X173197431Y-101483666D02*
X172435527Y-101483666D01*
X172816479Y-101864619D02*
X172816479Y-101102714D01*
X173197431Y-106483666D02*
X172435527Y-106483666D01*
X169321615Y-92883666D02*
X170464473Y-92883666D01*
X169893044Y-93264619D02*
X169893044Y-92502714D01*
X171893044Y-92264619D02*
X171178758Y-92264619D01*
X171178758Y-92264619D02*
X171107330Y-92740809D01*
X171107330Y-92740809D02*
X171178758Y-92693190D01*
X171178758Y-92693190D02*
X171321616Y-92645571D01*
X171321616Y-92645571D02*
X171678758Y-92645571D01*
X171678758Y-92645571D02*
X171821616Y-92693190D01*
X171821616Y-92693190D02*
X171893044Y-92740809D01*
X171893044Y-92740809D02*
X171964473Y-92836047D01*
X171964473Y-92836047D02*
X171964473Y-93074142D01*
X171964473Y-93074142D02*
X171893044Y-93169380D01*
X171893044Y-93169380D02*
X171821616Y-93217000D01*
X171821616Y-93217000D02*
X171678758Y-93264619D01*
X171678758Y-93264619D02*
X171321616Y-93264619D01*
X171321616Y-93264619D02*
X171178758Y-93217000D01*
X171178758Y-93217000D02*
X171107330Y-93169380D01*
X172393044Y-92264619D02*
X172893044Y-93264619D01*
X172893044Y-93264619D02*
X173393044Y-92264619D01*
X170307330Y-103464619D02*
X170807330Y-104464619D01*
X170807330Y-104464619D02*
X171307330Y-103464619D01*
X171807329Y-104464619D02*
X171807329Y-103464619D01*
X172521615Y-104464619D02*
X172521615Y-103464619D01*
X172521615Y-103464619D02*
X173378758Y-104464619D01*
X173378758Y-104464619D02*
X173378758Y-103464619D01*
D12*
X151330476Y-96304295D02*
X151330476Y-96951914D01*
X151330476Y-96951914D02*
X151368571Y-97028104D01*
X151368571Y-97028104D02*
X151406666Y-97066200D01*
X151406666Y-97066200D02*
X151482857Y-97104295D01*
X151482857Y-97104295D02*
X151635238Y-97104295D01*
X151635238Y-97104295D02*
X151711428Y-97066200D01*
X151711428Y-97066200D02*
X151749523Y-97028104D01*
X151749523Y-97028104D02*
X151787619Y-96951914D01*
X151787619Y-96951914D02*
X151787619Y-96304295D01*
X152092380Y-96304295D02*
X152587618Y-96304295D01*
X152587618Y-96304295D02*
X152320952Y-96609057D01*
X152320952Y-96609057D02*
X152435237Y-96609057D01*
X152435237Y-96609057D02*
X152511428Y-96647152D01*
X152511428Y-96647152D02*
X152549523Y-96685247D01*
X152549523Y-96685247D02*
X152587618Y-96761438D01*
X152587618Y-96761438D02*
X152587618Y-96951914D01*
X152587618Y-96951914D02*
X152549523Y-97028104D01*
X152549523Y-97028104D02*
X152511428Y-97066200D01*
X152511428Y-97066200D02*
X152435237Y-97104295D01*
X152435237Y-97104295D02*
X152206666Y-97104295D01*
X152206666Y-97104295D02*
X152130475Y-97066200D01*
X152130475Y-97066200D02*
X152092380Y-97028104D01*
X157423866Y-109930951D02*
X157423866Y-109169047D01*
X157804819Y-109549999D02*
X157042914Y-109549999D01*
X122350952Y-77084819D02*
X122350952Y-76084819D01*
X122350952Y-76084819D02*
X122684285Y-76799104D01*
X122684285Y-76799104D02*
X123017618Y-76084819D01*
X123017618Y-76084819D02*
X123017618Y-77084819D01*
X123493809Y-77084819D02*
X123493809Y-76418152D01*
X123493809Y-76084819D02*
X123446190Y-76132438D01*
X123446190Y-76132438D02*
X123493809Y-76180057D01*
X123493809Y-76180057D02*
X123541428Y-76132438D01*
X123541428Y-76132438D02*
X123493809Y-76084819D01*
X123493809Y-76084819D02*
X123493809Y-76180057D01*
X124398570Y-77037200D02*
X124303332Y-77084819D01*
X124303332Y-77084819D02*
X124112856Y-77084819D01*
X124112856Y-77084819D02*
X124017618Y-77037200D01*
X124017618Y-77037200D02*
X123969999Y-76989580D01*
X123969999Y-76989580D02*
X123922380Y-76894342D01*
X123922380Y-76894342D02*
X123922380Y-76608628D01*
X123922380Y-76608628D02*
X123969999Y-76513390D01*
X123969999Y-76513390D02*
X124017618Y-76465771D01*
X124017618Y-76465771D02*
X124112856Y-76418152D01*
X124112856Y-76418152D02*
X124303332Y-76418152D01*
X124303332Y-76418152D02*
X124398570Y-76465771D01*
X124827142Y-77084819D02*
X124827142Y-76418152D01*
X124827142Y-76608628D02*
X124874761Y-76513390D01*
X124874761Y-76513390D02*
X124922380Y-76465771D01*
X124922380Y-76465771D02*
X125017618Y-76418152D01*
X125017618Y-76418152D02*
X125112856Y-76418152D01*
X125589047Y-77084819D02*
X125493809Y-77037200D01*
X125493809Y-77037200D02*
X125446190Y-76989580D01*
X125446190Y-76989580D02*
X125398571Y-76894342D01*
X125398571Y-76894342D02*
X125398571Y-76608628D01*
X125398571Y-76608628D02*
X125446190Y-76513390D01*
X125446190Y-76513390D02*
X125493809Y-76465771D01*
X125493809Y-76465771D02*
X125589047Y-76418152D01*
X125589047Y-76418152D02*
X125731904Y-76418152D01*
X125731904Y-76418152D02*
X125827142Y-76465771D01*
X125827142Y-76465771D02*
X125874761Y-76513390D01*
X125874761Y-76513390D02*
X125922380Y-76608628D01*
X125922380Y-76608628D02*
X125922380Y-76894342D01*
X125922380Y-76894342D02*
X125874761Y-76989580D01*
X125874761Y-76989580D02*
X125827142Y-77037200D01*
X125827142Y-77037200D02*
X125731904Y-77084819D01*
X125731904Y-77084819D02*
X125589047Y-77084819D01*
X127065238Y-77037200D02*
X127208095Y-77084819D01*
X127208095Y-77084819D02*
X127446190Y-77084819D01*
X127446190Y-77084819D02*
X127541428Y-77037200D01*
X127541428Y-77037200D02*
X127589047Y-76989580D01*
X127589047Y-76989580D02*
X127636666Y-76894342D01*
X127636666Y-76894342D02*
X127636666Y-76799104D01*
X127636666Y-76799104D02*
X127589047Y-76703866D01*
X127589047Y-76703866D02*
X127541428Y-76656247D01*
X127541428Y-76656247D02*
X127446190Y-76608628D01*
X127446190Y-76608628D02*
X127255714Y-76561009D01*
X127255714Y-76561009D02*
X127160476Y-76513390D01*
X127160476Y-76513390D02*
X127112857Y-76465771D01*
X127112857Y-76465771D02*
X127065238Y-76370533D01*
X127065238Y-76370533D02*
X127065238Y-76275295D01*
X127065238Y-76275295D02*
X127112857Y-76180057D01*
X127112857Y-76180057D02*
X127160476Y-76132438D01*
X127160476Y-76132438D02*
X127255714Y-76084819D01*
X127255714Y-76084819D02*
X127493809Y-76084819D01*
X127493809Y-76084819D02*
X127636666Y-76132438D01*
X128065238Y-77084819D02*
X128065238Y-76084819D01*
X128065238Y-76084819D02*
X128303333Y-76084819D01*
X128303333Y-76084819D02*
X128446190Y-76132438D01*
X128446190Y-76132438D02*
X128541428Y-76227676D01*
X128541428Y-76227676D02*
X128589047Y-76322914D01*
X128589047Y-76322914D02*
X128636666Y-76513390D01*
X128636666Y-76513390D02*
X128636666Y-76656247D01*
X128636666Y-76656247D02*
X128589047Y-76846723D01*
X128589047Y-76846723D02*
X128541428Y-76941961D01*
X128541428Y-76941961D02*
X128446190Y-77037200D01*
X128446190Y-77037200D02*
X128303333Y-77084819D01*
X128303333Y-77084819D02*
X128065238Y-77084819D01*
X161596009Y-82763743D02*
X161596009Y-82430410D01*
X162119819Y-82287553D02*
X162119819Y-82763743D01*
X162119819Y-82763743D02*
X161119819Y-82763743D01*
X161119819Y-82763743D02*
X161119819Y-82287553D01*
X161453152Y-82001838D02*
X161453152Y-81620886D01*
X161119819Y-81858981D02*
X161976961Y-81858981D01*
X161976961Y-81858981D02*
X162072200Y-81811362D01*
X162072200Y-81811362D02*
X162119819Y-81716124D01*
X162119819Y-81716124D02*
X162119819Y-81620886D01*
X162119819Y-81287552D02*
X161119819Y-81287552D01*
X162119819Y-80858981D02*
X161596009Y-80858981D01*
X161596009Y-80858981D02*
X161500771Y-80906600D01*
X161500771Y-80906600D02*
X161453152Y-81001838D01*
X161453152Y-81001838D02*
X161453152Y-81144695D01*
X161453152Y-81144695D02*
X161500771Y-81239933D01*
X161500771Y-81239933D02*
X161548390Y-81287552D01*
X162072200Y-80001838D02*
X162119819Y-80097076D01*
X162119819Y-80097076D02*
X162119819Y-80287552D01*
X162119819Y-80287552D02*
X162072200Y-80382790D01*
X162072200Y-80382790D02*
X161976961Y-80430409D01*
X161976961Y-80430409D02*
X161596009Y-80430409D01*
X161596009Y-80430409D02*
X161500771Y-80382790D01*
X161500771Y-80382790D02*
X161453152Y-80287552D01*
X161453152Y-80287552D02*
X161453152Y-80097076D01*
X161453152Y-80097076D02*
X161500771Y-80001838D01*
X161500771Y-80001838D02*
X161596009Y-79954219D01*
X161596009Y-79954219D02*
X161691247Y-79954219D01*
X161691247Y-79954219D02*
X161786485Y-80430409D01*
X162119819Y-79525647D02*
X161453152Y-79525647D01*
X161643628Y-79525647D02*
X161548390Y-79478028D01*
X161548390Y-79478028D02*
X161500771Y-79430409D01*
X161500771Y-79430409D02*
X161453152Y-79335171D01*
X161453152Y-79335171D02*
X161453152Y-79239933D01*
X161453152Y-78906599D02*
X162119819Y-78906599D01*
X161548390Y-78906599D02*
X161500771Y-78858980D01*
X161500771Y-78858980D02*
X161453152Y-78763742D01*
X161453152Y-78763742D02*
X161453152Y-78620885D01*
X161453152Y-78620885D02*
X161500771Y-78525647D01*
X161500771Y-78525647D02*
X161596009Y-78478028D01*
X161596009Y-78478028D02*
X162119819Y-78478028D01*
X162072200Y-77620885D02*
X162119819Y-77716123D01*
X162119819Y-77716123D02*
X162119819Y-77906599D01*
X162119819Y-77906599D02*
X162072200Y-78001837D01*
X162072200Y-78001837D02*
X161976961Y-78049456D01*
X161976961Y-78049456D02*
X161596009Y-78049456D01*
X161596009Y-78049456D02*
X161500771Y-78001837D01*
X161500771Y-78001837D02*
X161453152Y-77906599D01*
X161453152Y-77906599D02*
X161453152Y-77716123D01*
X161453152Y-77716123D02*
X161500771Y-77620885D01*
X161500771Y-77620885D02*
X161596009Y-77573266D01*
X161596009Y-77573266D02*
X161691247Y-77573266D01*
X161691247Y-77573266D02*
X161786485Y-78049456D01*
X161453152Y-77287551D02*
X161453152Y-76906599D01*
X161119819Y-77144694D02*
X161976961Y-77144694D01*
X161976961Y-77144694D02*
X162072200Y-77097075D01*
X162072200Y-77097075D02*
X162119819Y-77001837D01*
X162119819Y-77001837D02*
X162119819Y-76906599D01*
X164756276Y-73595619D02*
X164756276Y-74405142D01*
X164756276Y-74405142D02*
X164803895Y-74500380D01*
X164803895Y-74500380D02*
X164851514Y-74548000D01*
X164851514Y-74548000D02*
X164946752Y-74595619D01*
X164946752Y-74595619D02*
X165137228Y-74595619D01*
X165137228Y-74595619D02*
X165232466Y-74548000D01*
X165232466Y-74548000D02*
X165280085Y-74500380D01*
X165280085Y-74500380D02*
X165327704Y-74405142D01*
X165327704Y-74405142D02*
X165327704Y-73595619D01*
X165756276Y-74548000D02*
X165899133Y-74595619D01*
X165899133Y-74595619D02*
X166137228Y-74595619D01*
X166137228Y-74595619D02*
X166232466Y-74548000D01*
X166232466Y-74548000D02*
X166280085Y-74500380D01*
X166280085Y-74500380D02*
X166327704Y-74405142D01*
X166327704Y-74405142D02*
X166327704Y-74309904D01*
X166327704Y-74309904D02*
X166280085Y-74214666D01*
X166280085Y-74214666D02*
X166232466Y-74167047D01*
X166232466Y-74167047D02*
X166137228Y-74119428D01*
X166137228Y-74119428D02*
X165946752Y-74071809D01*
X165946752Y-74071809D02*
X165851514Y-74024190D01*
X165851514Y-74024190D02*
X165803895Y-73976571D01*
X165803895Y-73976571D02*
X165756276Y-73881333D01*
X165756276Y-73881333D02*
X165756276Y-73786095D01*
X165756276Y-73786095D02*
X165803895Y-73690857D01*
X165803895Y-73690857D02*
X165851514Y-73643238D01*
X165851514Y-73643238D02*
X165946752Y-73595619D01*
X165946752Y-73595619D02*
X166184847Y-73595619D01*
X166184847Y-73595619D02*
X166327704Y-73643238D01*
X167089609Y-74071809D02*
X167232466Y-74119428D01*
X167232466Y-74119428D02*
X167280085Y-74167047D01*
X167280085Y-74167047D02*
X167327704Y-74262285D01*
X167327704Y-74262285D02*
X167327704Y-74405142D01*
X167327704Y-74405142D02*
X167280085Y-74500380D01*
X167280085Y-74500380D02*
X167232466Y-74548000D01*
X167232466Y-74548000D02*
X167137228Y-74595619D01*
X167137228Y-74595619D02*
X166756276Y-74595619D01*
X166756276Y-74595619D02*
X166756276Y-73595619D01*
X166756276Y-73595619D02*
X167089609Y-73595619D01*
X167089609Y-73595619D02*
X167184847Y-73643238D01*
X167184847Y-73643238D02*
X167232466Y-73690857D01*
X167232466Y-73690857D02*
X167280085Y-73786095D01*
X167280085Y-73786095D02*
X167280085Y-73881333D01*
X167280085Y-73881333D02*
X167232466Y-73976571D01*
X167232466Y-73976571D02*
X167184847Y-74024190D01*
X167184847Y-74024190D02*
X167089609Y-74071809D01*
X167089609Y-74071809D02*
X166756276Y-74071809D01*
X168518181Y-74595619D02*
X168518181Y-73595619D01*
X168518181Y-74071809D02*
X169089609Y-74071809D01*
X169089609Y-74595619D02*
X169089609Y-73595619D01*
X169708657Y-74595619D02*
X169613419Y-74548000D01*
X169613419Y-74548000D02*
X169565800Y-74500380D01*
X169565800Y-74500380D02*
X169518181Y-74405142D01*
X169518181Y-74405142D02*
X169518181Y-74119428D01*
X169518181Y-74119428D02*
X169565800Y-74024190D01*
X169565800Y-74024190D02*
X169613419Y-73976571D01*
X169613419Y-73976571D02*
X169708657Y-73928952D01*
X169708657Y-73928952D02*
X169851514Y-73928952D01*
X169851514Y-73928952D02*
X169946752Y-73976571D01*
X169946752Y-73976571D02*
X169994371Y-74024190D01*
X169994371Y-74024190D02*
X170041990Y-74119428D01*
X170041990Y-74119428D02*
X170041990Y-74405142D01*
X170041990Y-74405142D02*
X169994371Y-74500380D01*
X169994371Y-74500380D02*
X169946752Y-74548000D01*
X169946752Y-74548000D02*
X169851514Y-74595619D01*
X169851514Y-74595619D02*
X169708657Y-74595619D01*
X170422943Y-74548000D02*
X170518181Y-74595619D01*
X170518181Y-74595619D02*
X170708657Y-74595619D01*
X170708657Y-74595619D02*
X170803895Y-74548000D01*
X170803895Y-74548000D02*
X170851514Y-74452761D01*
X170851514Y-74452761D02*
X170851514Y-74405142D01*
X170851514Y-74405142D02*
X170803895Y-74309904D01*
X170803895Y-74309904D02*
X170708657Y-74262285D01*
X170708657Y-74262285D02*
X170565800Y-74262285D01*
X170565800Y-74262285D02*
X170470562Y-74214666D01*
X170470562Y-74214666D02*
X170422943Y-74119428D01*
X170422943Y-74119428D02*
X170422943Y-74071809D01*
X170422943Y-74071809D02*
X170470562Y-73976571D01*
X170470562Y-73976571D02*
X170565800Y-73928952D01*
X170565800Y-73928952D02*
X170708657Y-73928952D01*
X170708657Y-73928952D02*
X170803895Y-73976571D01*
X171137229Y-73928952D02*
X171518181Y-73928952D01*
X171280086Y-73595619D02*
X171280086Y-74452761D01*
X171280086Y-74452761D02*
X171327705Y-74548000D01*
X171327705Y-74548000D02*
X171422943Y-74595619D01*
X171422943Y-74595619D02*
X171518181Y-74595619D01*
X175724819Y-77891904D02*
X176534342Y-77891904D01*
X176534342Y-77891904D02*
X176629580Y-77844285D01*
X176629580Y-77844285D02*
X176677200Y-77796666D01*
X176677200Y-77796666D02*
X176724819Y-77701428D01*
X176724819Y-77701428D02*
X176724819Y-77510952D01*
X176724819Y-77510952D02*
X176677200Y-77415714D01*
X176677200Y-77415714D02*
X176629580Y-77368095D01*
X176629580Y-77368095D02*
X176534342Y-77320476D01*
X176534342Y-77320476D02*
X175724819Y-77320476D01*
X176677200Y-76891904D02*
X176724819Y-76749047D01*
X176724819Y-76749047D02*
X176724819Y-76510952D01*
X176724819Y-76510952D02*
X176677200Y-76415714D01*
X176677200Y-76415714D02*
X176629580Y-76368095D01*
X176629580Y-76368095D02*
X176534342Y-76320476D01*
X176534342Y-76320476D02*
X176439104Y-76320476D01*
X176439104Y-76320476D02*
X176343866Y-76368095D01*
X176343866Y-76368095D02*
X176296247Y-76415714D01*
X176296247Y-76415714D02*
X176248628Y-76510952D01*
X176248628Y-76510952D02*
X176201009Y-76701428D01*
X176201009Y-76701428D02*
X176153390Y-76796666D01*
X176153390Y-76796666D02*
X176105771Y-76844285D01*
X176105771Y-76844285D02*
X176010533Y-76891904D01*
X176010533Y-76891904D02*
X175915295Y-76891904D01*
X175915295Y-76891904D02*
X175820057Y-76844285D01*
X175820057Y-76844285D02*
X175772438Y-76796666D01*
X175772438Y-76796666D02*
X175724819Y-76701428D01*
X175724819Y-76701428D02*
X175724819Y-76463333D01*
X175724819Y-76463333D02*
X175772438Y-76320476D01*
X176201009Y-75558571D02*
X176248628Y-75415714D01*
X176248628Y-75415714D02*
X176296247Y-75368095D01*
X176296247Y-75368095D02*
X176391485Y-75320476D01*
X176391485Y-75320476D02*
X176534342Y-75320476D01*
X176534342Y-75320476D02*
X176629580Y-75368095D01*
X176629580Y-75368095D02*
X176677200Y-75415714D01*
X176677200Y-75415714D02*
X176724819Y-75510952D01*
X176724819Y-75510952D02*
X176724819Y-75891904D01*
X176724819Y-75891904D02*
X175724819Y-75891904D01*
X175724819Y-75891904D02*
X175724819Y-75558571D01*
X175724819Y-75558571D02*
X175772438Y-75463333D01*
X175772438Y-75463333D02*
X175820057Y-75415714D01*
X175820057Y-75415714D02*
X175915295Y-75368095D01*
X175915295Y-75368095D02*
X176010533Y-75368095D01*
X176010533Y-75368095D02*
X176105771Y-75415714D01*
X176105771Y-75415714D02*
X176153390Y-75463333D01*
X176153390Y-75463333D02*
X176201009Y-75558571D01*
X176201009Y-75558571D02*
X176201009Y-75891904D01*
%TO.C,U3*%
D13*
X149690000Y-98200000D02*
G75*
G02*
X149490000Y-98200000I-100000J0D01*
G01*
X149490000Y-98200000D02*
G75*
G02*
X149690000Y-98200000I100000J0D01*
G01*
D14*
X151670000Y-97800000D02*
X152330000Y-97800000D01*
X152800000Y-98915000D02*
X152800000Y-99585000D01*
X152330000Y-100700000D02*
X151670000Y-100700000D01*
%TO.C,C6*%
D15*
X165390580Y-104740000D02*
X165109420Y-104740000D01*
X165390580Y-105760000D02*
X165109420Y-105760000D01*
%TO.C,Q4*%
D14*
X132050000Y-105350000D02*
X132050000Y-106135000D01*
X132880000Y-105350000D02*
X132050000Y-105350000D01*
X134950000Y-105350000D02*
X134120000Y-105350000D01*
X134950000Y-106135000D02*
X134950000Y-105350000D01*
D13*
X132650000Y-108305000D02*
G75*
G02*
X132450000Y-108305000I-100000J0D01*
G01*
X132450000Y-108305000D02*
G75*
G02*
X132650000Y-108305000I100000J0D01*
G01*
%TO.C,D9*%
D15*
X160450000Y-91685000D02*
X162735000Y-91685000D01*
X162735000Y-90215000D02*
X160450000Y-90215000D01*
X162735000Y-91685000D02*
X162735000Y-90215000D01*
%TO.C,J1*%
X129280000Y-57220000D02*
X139660000Y-57220000D01*
X129280000Y-59870000D02*
X129280000Y-57220000D01*
X129280000Y-62520000D02*
X129280000Y-61140000D01*
X130660000Y-62520000D02*
X129280000Y-62520000D01*
X131930000Y-59870000D02*
X129280000Y-59870000D01*
X131930000Y-62520000D02*
X131930000Y-59870000D01*
X131930000Y-62520000D02*
X139660000Y-62520000D01*
X139660000Y-62520000D02*
X139660000Y-57220000D01*
%TO.C,C11*%
D13*
X156350000Y-101850000D02*
X156350000Y-107050000D01*
X156350000Y-101850000D02*
X158650000Y-101850000D01*
X156350000Y-107050000D02*
X157950000Y-108650000D01*
X157950000Y-108650000D02*
X158650000Y-108650000D01*
X161550000Y-108650000D02*
X160850000Y-108650000D01*
X163150000Y-101850000D02*
X160850000Y-101850000D01*
X163150000Y-101850000D02*
X163150000Y-107050000D01*
X163150000Y-107050000D02*
X161550000Y-108650000D01*
%TO.C,J2*%
X173700000Y-98650000D02*
X181400000Y-98650000D01*
X173700000Y-108850000D02*
X173700000Y-98650000D01*
X174550000Y-109350000D02*
X174750000Y-108850000D01*
X174750000Y-108850000D02*
X173700000Y-108850000D01*
X175600000Y-108850000D02*
X175800000Y-109350000D01*
X175800000Y-109350000D02*
X174550000Y-109350000D01*
X181400000Y-98650000D02*
X181400000Y-108850000D01*
X181400000Y-108850000D02*
X175600000Y-108850000D01*
%TO.C,R25*%
D15*
X129237258Y-91477500D02*
X128762742Y-91477500D01*
X129237258Y-92522500D02*
X128762742Y-92522500D01*
%TO.C,R20*%
X141662258Y-92977500D02*
X141187742Y-92977500D01*
X141662258Y-94022500D02*
X141187742Y-94022500D01*
%TO.C,R21*%
X141187742Y-91227500D02*
X141662258Y-91227500D01*
X141187742Y-92272500D02*
X141662258Y-92272500D01*
%TO.C,R34*%
X155687742Y-93467500D02*
X156162258Y-93467500D01*
X155687742Y-94512500D02*
X156162258Y-94512500D01*
%TO.C,R14*%
X129477500Y-106562258D02*
X129477500Y-106087742D01*
X130522500Y-106562258D02*
X130522500Y-106087742D01*
%TO.C,R11*%
X136152500Y-107512742D02*
X136152500Y-107987258D01*
X137197500Y-107512742D02*
X137197500Y-107987258D01*
%TO.C,J4*%
D13*
X118350000Y-98400000D02*
X124150000Y-98400000D01*
X118350000Y-108600000D02*
X118350000Y-98400000D01*
X123950000Y-97900000D02*
X125200000Y-97900000D01*
X124150000Y-98400000D02*
X123950000Y-97900000D01*
X125000000Y-98400000D02*
X126050000Y-98400000D01*
X125200000Y-97900000D02*
X125000000Y-98400000D01*
X126050000Y-98400000D02*
X126050000Y-108600000D01*
X126050000Y-108600000D02*
X118350000Y-108600000D01*
%TO.C,D5*%
D14*
X137050000Y-88615000D02*
X137050000Y-89400000D01*
X137050000Y-89400000D02*
X137880000Y-89400000D01*
X139120000Y-89400000D02*
X139950000Y-89400000D01*
X139950000Y-89400000D02*
X139950000Y-88615000D01*
D13*
X139550000Y-86445000D02*
G75*
G02*
X139350000Y-86445000I-100000J0D01*
G01*
X139350000Y-86445000D02*
G75*
G02*
X139550000Y-86445000I100000J0D01*
G01*
%TO.C,D2*%
D14*
X137365000Y-105700000D02*
X138150000Y-105700000D01*
X138150000Y-102800000D02*
X137365000Y-102800000D01*
X138150000Y-103630000D02*
X138150000Y-102800000D01*
X138150000Y-105700000D02*
X138150000Y-104870000D01*
D13*
X135295000Y-103300000D02*
G75*
G02*
X135095000Y-103300000I-100000J0D01*
G01*
X135095000Y-103300000D02*
G75*
G02*
X135295000Y-103300000I100000J0D01*
G01*
%TO.C,R33*%
D15*
X156162258Y-91707500D02*
X155687742Y-91707500D01*
X156162258Y-92752500D02*
X155687742Y-92752500D01*
%TO.C,D3*%
D14*
X140800000Y-88615000D02*
X140800000Y-89400000D01*
X140800000Y-89400000D02*
X141630000Y-89400000D01*
X142870000Y-89400000D02*
X143700000Y-89400000D01*
X143700000Y-89400000D02*
X143700000Y-88615000D01*
D13*
X143300000Y-86445000D02*
G75*
G02*
X143100000Y-86445000I-100000J0D01*
G01*
X143100000Y-86445000D02*
G75*
G02*
X143300000Y-86445000I100000J0D01*
G01*
%TO.C,R15*%
D15*
X127227500Y-106087742D02*
X127227500Y-106562258D01*
X128272500Y-106087742D02*
X128272500Y-106562258D01*
%TO.C,U2*%
D14*
X165985000Y-109450000D02*
X165985000Y-111050000D01*
X169115000Y-109450000D02*
X169115000Y-111050000D01*
D13*
X168596000Y-107850000D02*
G75*
G02*
X168396000Y-107850000I-100000J0D01*
G01*
X168396000Y-107850000D02*
G75*
G02*
X168596000Y-107850000I100000J0D01*
G01*
%TO.C,Q1*%
D14*
X165155000Y-97300000D02*
X165155000Y-98130000D01*
X165155000Y-99370000D02*
X165155000Y-100200000D01*
X165155000Y-100200000D02*
X165940000Y-100200000D01*
X165940000Y-97300000D02*
X165155000Y-97300000D01*
D13*
X168210000Y-99700000D02*
G75*
G02*
X168010000Y-99700000I-100000J0D01*
G01*
X168010000Y-99700000D02*
G75*
G02*
X168210000Y-99700000I100000J0D01*
G01*
%TO.C,Q3*%
D14*
X133040000Y-99350000D02*
X133040000Y-100125000D01*
X133880000Y-99350000D02*
X133040000Y-99350000D01*
X134170000Y-100650000D02*
X134830000Y-100650000D01*
X135120000Y-99350000D02*
X135960000Y-99350000D01*
X135960000Y-99350000D02*
X135960000Y-100125000D01*
D13*
X133400000Y-102500000D02*
G75*
G02*
X133200000Y-102500000I-100000J0D01*
G01*
X133200000Y-102500000D02*
G75*
G02*
X133400000Y-102500000I100000J0D01*
G01*
%TO.C,R23*%
D15*
X131227500Y-88512742D02*
X131227500Y-88987258D01*
X132272500Y-88512742D02*
X132272500Y-88987258D01*
%TO.C,J7*%
X150575100Y-110330000D02*
X151955100Y-110330000D01*
X150575100Y-111710000D02*
X150575100Y-110330000D01*
X150575100Y-112980000D02*
X150575100Y-118170000D01*
X150575100Y-112980000D02*
X153335100Y-112980000D01*
X150575100Y-118170000D02*
X153335100Y-118170000D01*
X153335100Y-112980000D02*
X153335100Y-118170000D01*
%TO.C,Q7*%
D14*
X132150000Y-92805000D02*
X132150000Y-93590000D01*
X132980000Y-92805000D02*
X132150000Y-92805000D01*
X135050000Y-92805000D02*
X134220000Y-92805000D01*
X135050000Y-93590000D02*
X135050000Y-92805000D01*
D13*
X132750000Y-95760000D02*
G75*
G02*
X132550000Y-95760000I-100000J0D01*
G01*
X132550000Y-95760000D02*
G75*
G02*
X132750000Y-95760000I100000J0D01*
G01*
%TO.C,R41*%
D15*
X164987258Y-88427500D02*
X164512742Y-88427500D01*
X164987258Y-89472500D02*
X164512742Y-89472500D01*
%TO.C,C25*%
D16*
X138321000Y-110821000D02*
X138321000Y-113307660D01*
X138321000Y-115192340D02*
X138321000Y-117679000D01*
X138321000Y-117679000D02*
X145179000Y-117679000D01*
X145179000Y-110821000D02*
X138321000Y-110821000D01*
X145179000Y-113307660D02*
X145179000Y-110821000D01*
X145179000Y-117679000D02*
X145179000Y-115192340D01*
%TO.C,J9*%
D15*
X160290000Y-57080000D02*
X170670000Y-57080000D01*
X160290000Y-59730000D02*
X160290000Y-57080000D01*
X160290000Y-62380000D02*
X160290000Y-61000000D01*
X161670000Y-62380000D02*
X160290000Y-62380000D01*
X162940000Y-59730000D02*
X160290000Y-59730000D01*
X162940000Y-62380000D02*
X162940000Y-59730000D01*
X162940000Y-62380000D02*
X170670000Y-62380000D01*
X170670000Y-62380000D02*
X170670000Y-57080000D01*
%TO.C,D4*%
D14*
X137540000Y-94340000D02*
X138325000Y-94340000D01*
X138325000Y-91440000D02*
X137540000Y-91440000D01*
X138325000Y-92270000D02*
X138325000Y-91440000D01*
X138325000Y-94340000D02*
X138325000Y-93510000D01*
D13*
X135470000Y-91940000D02*
G75*
G02*
X135270000Y-91940000I-100000J0D01*
G01*
X135270000Y-91940000D02*
G75*
G02*
X135470000Y-91940000I100000J0D01*
G01*
%TO.C,Q5*%
D14*
X133290000Y-88100000D02*
X133290000Y-88875000D01*
X134130000Y-88100000D02*
X133290000Y-88100000D01*
X134420000Y-89400000D02*
X135080000Y-89400000D01*
X135370000Y-88100000D02*
X136210000Y-88100000D01*
X136210000Y-88100000D02*
X136210000Y-88875000D01*
D13*
X133650000Y-91250000D02*
G75*
G02*
X133450000Y-91250000I-100000J0D01*
G01*
X133450000Y-91250000D02*
G75*
G02*
X133650000Y-91250000I100000J0D01*
G01*
%TO.C,J6*%
D15*
X146825100Y-110330000D02*
X148205100Y-110330000D01*
X146825100Y-111710000D02*
X146825100Y-110330000D01*
X146825100Y-112980000D02*
X146825100Y-118170000D01*
X146825100Y-112980000D02*
X149585100Y-112980000D01*
X146825100Y-118170000D02*
X149585100Y-118170000D01*
X149585100Y-112980000D02*
X149585100Y-118170000D01*
%TO.C,C9*%
X154690000Y-99540580D02*
X154690000Y-99259420D01*
X155710000Y-99540580D02*
X155710000Y-99259420D01*
%TO.C,C24*%
D16*
X154981200Y-110821000D02*
X154981200Y-113307660D01*
X154981200Y-115192340D02*
X154981200Y-117679000D01*
X154981200Y-117679000D02*
X161839200Y-117679000D01*
X161839200Y-110821000D02*
X154981200Y-110821000D01*
X161839200Y-113307660D02*
X161839200Y-110821000D01*
X161839200Y-117679000D02*
X161839200Y-115192340D01*
%TO.C,C3*%
D15*
X168615580Y-101240000D02*
X168334420Y-101240000D01*
X168615580Y-102260000D02*
X168334420Y-102260000D01*
%TO.C,R10*%
X141662258Y-104227500D02*
X141187742Y-104227500D01*
X141662258Y-105272500D02*
X141187742Y-105272500D01*
D17*
%TO.C,kibuzzard-6A2E09AC*%
G36*
X133593565Y-65739338D02*
G01*
X133662628Y-65895638D01*
X133638395Y-66003473D01*
X133576602Y-66068901D01*
X133490576Y-66100404D01*
X133391222Y-66108885D01*
X133317313Y-66106462D01*
X133248250Y-66099192D01*
X133248250Y-65692084D01*
X133408185Y-65692084D01*
X133593565Y-65739338D01*
G37*
G36*
X133463920Y-65097173D02*
G01*
X133531772Y-65121405D01*
X133577814Y-65172294D01*
X133594777Y-65258320D01*
X133536618Y-65395234D01*
X133364567Y-65444911D01*
X133248250Y-65444911D01*
X133248250Y-65100808D01*
X133313678Y-65093538D01*
X133383953Y-65091115D01*
X133463920Y-65097173D01*
G37*
G36*
X135868403Y-65105048D02*
G01*
X135952612Y-65146850D01*
X136007135Y-65218336D01*
X136025310Y-65321325D01*
X135957458Y-65489742D01*
X135868403Y-65534269D01*
X135736941Y-65549111D01*
X135671513Y-65549111D01*
X135671513Y-65098384D01*
X135719978Y-65092326D01*
X135761174Y-65091115D01*
X135868403Y-65105048D01*
G37*
G36*
X138218632Y-65600000D02*
G01*
X137194938Y-67135541D01*
X136427571Y-67135541D01*
X134183630Y-67135541D01*
X133366990Y-67135541D01*
X132763597Y-67135541D01*
X130548735Y-67135541D01*
X129781368Y-67135541D01*
X129781368Y-66348788D01*
X130548735Y-66348788D01*
X131510770Y-66348788D01*
X131663436Y-66348788D01*
X131937264Y-66348788D01*
X131925148Y-65183199D01*
X132102046Y-65818094D01*
X132320140Y-65818094D01*
X132504308Y-65183199D01*
X132489768Y-66348788D01*
X132763597Y-66348788D01*
X132758145Y-66157048D01*
X132751481Y-65969548D01*
X132743302Y-65784774D01*
X132733306Y-65601212D01*
X132721190Y-65417347D01*
X132706651Y-65231664D01*
X132690596Y-65042649D01*
X132675602Y-64868174D01*
X132950188Y-64868174D01*
X132950188Y-66324556D01*
X133054995Y-66343639D01*
X133161012Y-66357270D01*
X133265819Y-66365448D01*
X133366990Y-66368174D01*
X133486638Y-66362419D01*
X133574880Y-66348788D01*
X134183630Y-66348788D01*
X135145665Y-66348788D01*
X135145665Y-66101616D01*
X134481691Y-66101616D01*
X134481691Y-65679968D01*
X135012386Y-65679968D01*
X135012386Y-65432795D01*
X134481691Y-65432795D01*
X134481691Y-65095961D01*
X135092353Y-65095961D01*
X135092353Y-64870598D01*
X135373452Y-64870598D01*
X135373452Y-66348788D01*
X135671513Y-66348788D01*
X135671513Y-65796284D01*
X135826602Y-65796284D01*
X135908690Y-65933502D01*
X135985326Y-66068901D01*
X136054692Y-66206119D01*
X136114970Y-66348788D01*
X136427571Y-66348788D01*
X136358508Y-66190065D01*
X136274906Y-66022859D01*
X136185245Y-65862924D01*
X136098008Y-65723586D01*
X136204025Y-65655129D01*
X136274906Y-65561228D01*
X136314890Y-65448546D01*
X136328218Y-65323748D01*
X136318222Y-65205917D01*
X136288234Y-65104443D01*
X136173129Y-64950565D01*
X136090738Y-64897859D01*
X135993807Y-64860905D01*
X135883549Y-64839095D01*
X135761174Y-64831826D01*
X135676360Y-64834249D01*
X135574583Y-64840307D01*
X135469171Y-64852423D01*
X135373452Y-64870598D01*
X135092353Y-64870598D01*
X135092353Y-64848788D01*
X134183630Y-64848788D01*
X134183630Y-66348788D01*
X133574880Y-66348788D01*
X133598411Y-66345153D01*
X133698977Y-66314257D01*
X133785003Y-66267609D01*
X133909801Y-66122213D01*
X133944332Y-66020133D01*
X133955843Y-65895638D01*
X133942212Y-65793861D01*
X133901319Y-65696931D01*
X133822260Y-65612116D01*
X133694130Y-65546688D01*
X133833468Y-65415832D01*
X133872543Y-65327383D01*
X133885568Y-65226817D01*
X133863759Y-65086268D01*
X133781368Y-64959047D01*
X133614163Y-64866963D01*
X133491788Y-64840610D01*
X133337911Y-64831826D01*
X133136780Y-64842730D01*
X132950188Y-64868174D01*
X132675602Y-64868174D01*
X132673936Y-64848788D01*
X132426764Y-64848788D01*
X132383145Y-64977221D01*
X132329833Y-65143215D01*
X132269251Y-65327383D01*
X132208670Y-65512763D01*
X132152935Y-65338288D01*
X132094777Y-65151696D01*
X132040253Y-64979645D01*
X131997846Y-64848788D01*
X131750673Y-64848788D01*
X131734619Y-65012964D01*
X131720382Y-65190468D01*
X131707963Y-65377666D01*
X131697361Y-65570921D01*
X131687971Y-65767811D01*
X131679187Y-65965913D01*
X131671008Y-66160985D01*
X131663436Y-66348788D01*
X131510770Y-66348788D01*
X131510770Y-66101616D01*
X130846796Y-66101616D01*
X130846796Y-65679968D01*
X131377491Y-65679968D01*
X131377491Y-65432795D01*
X130846796Y-65432795D01*
X130846796Y-65095961D01*
X131457458Y-65095961D01*
X131457458Y-64848788D01*
X130548735Y-64848788D01*
X130548735Y-66348788D01*
X129781368Y-66348788D01*
X129781368Y-64064459D01*
X130548735Y-64064459D01*
X136427571Y-64064459D01*
X137194938Y-64064459D01*
X138218632Y-65600000D01*
G37*
%TO.C,R1*%
D15*
X167027500Y-114982258D02*
X167027500Y-114507742D01*
X168072500Y-114982258D02*
X168072500Y-114507742D01*
%TO.C,L1*%
X168337221Y-104740000D02*
X168662779Y-104740000D01*
X168337221Y-105760000D02*
X168662779Y-105760000D01*
%TO.C,R31*%
X164987258Y-90427500D02*
X164512742Y-90427500D01*
X164987258Y-91472500D02*
X164512742Y-91472500D01*
%TO.C,U6*%
D12*
X119120000Y-67740000D02*
X180080000Y-67740000D01*
X119120000Y-81710000D02*
X120390000Y-81710000D01*
X119120000Y-82980000D02*
X131820000Y-82980000D01*
X119120000Y-85520000D02*
X119120000Y-67740000D01*
X120390000Y-71550000D02*
X119120000Y-71550000D01*
X120390000Y-81710000D02*
X120390000Y-71550000D01*
X131820000Y-70280000D02*
X119120000Y-70280000D01*
X131820000Y-82980000D02*
X131820000Y-70280000D01*
X135630000Y-75360000D02*
X139440000Y-75360000D01*
X135630000Y-77900000D02*
X135630000Y-75360000D01*
X139440000Y-75360000D02*
X139440000Y-77900000D01*
X139440000Y-77900000D02*
X135630000Y-77900000D01*
X144520000Y-70280000D02*
X144520000Y-82980000D01*
X144520000Y-82980000D02*
X157220000Y-82980000D01*
X157220000Y-70280000D02*
X144520000Y-70280000D01*
X157220000Y-82980000D02*
X157220000Y-70280000D01*
X161080800Y-70790800D02*
X173780800Y-70790800D01*
X161080800Y-73330800D02*
X161080800Y-70790800D01*
X162850000Y-76731600D02*
X162850000Y-82981600D01*
X162850000Y-82981600D02*
X166850000Y-82981600D01*
X166850000Y-76731600D02*
X162850000Y-76731600D01*
X166850000Y-82731600D02*
X166850000Y-76731600D01*
X166850000Y-82981600D02*
X166850000Y-82731600D01*
X171240800Y-73330800D02*
X171240800Y-70790800D01*
X173780800Y-70790800D02*
X173780800Y-73330800D01*
X173780800Y-73330800D02*
X161080800Y-73330800D01*
X173780800Y-73330800D02*
X171240800Y-73330800D01*
X175000000Y-72820000D02*
X175000000Y-80440000D01*
X175000000Y-72820000D02*
X180080000Y-72820000D01*
X175000000Y-80440000D02*
X180080000Y-80440000D01*
X180080000Y-67740000D02*
X180080000Y-85520000D01*
X180080000Y-72820000D02*
X181350000Y-72820000D01*
X180080000Y-85520000D02*
X119120000Y-85520000D01*
X181350000Y-72820000D02*
X181350000Y-80440000D01*
X181350000Y-80440000D02*
X180080000Y-80440000D01*
X138433026Y-76630000D02*
G75*
G02*
X136636974Y-76630000I-898026J0D01*
G01*
X136636974Y-76630000D02*
G75*
G02*
X138433026Y-76630000I898026J0D01*
G01*
D18*
X146403000Y-76937000D02*
X146657000Y-76683000D01*
X146911000Y-77064000D01*
X146657000Y-77318000D01*
X146403000Y-76937000D01*
G36*
X146911000Y-77064000D02*
G01*
X146657000Y-77318000D01*
X146403000Y-76937000D01*
X146657000Y-76683000D01*
X146911000Y-77064000D01*
G37*
X146784000Y-76556000D02*
X147038000Y-76302000D01*
X147292000Y-76683000D01*
X147038000Y-76937000D01*
X146784000Y-76556000D01*
G36*
X147292000Y-76683000D02*
G01*
X147038000Y-76937000D01*
X146784000Y-76556000D01*
X147038000Y-76302000D01*
X147292000Y-76683000D01*
G37*
X147165000Y-76175000D02*
X147419000Y-75921000D01*
X147673000Y-76302000D01*
X147419000Y-76556000D01*
X147165000Y-76175000D01*
G36*
X147673000Y-76302000D02*
G01*
X147419000Y-76556000D01*
X147165000Y-76175000D01*
X147419000Y-75921000D01*
X147673000Y-76302000D01*
G37*
X147546000Y-76683000D02*
X147800000Y-76429000D01*
X148054000Y-76810000D01*
X147800000Y-77064000D01*
X147546000Y-76683000D01*
G36*
X148054000Y-76810000D02*
G01*
X147800000Y-77064000D01*
X147546000Y-76683000D01*
X147800000Y-76429000D01*
X148054000Y-76810000D01*
G37*
X147927000Y-76302000D02*
X148181000Y-76048000D01*
X148435000Y-76429000D01*
X148181000Y-76683000D01*
X147927000Y-76302000D01*
G36*
X148435000Y-76429000D02*
G01*
X148181000Y-76683000D01*
X147927000Y-76302000D01*
X148181000Y-76048000D01*
X148435000Y-76429000D01*
G37*
X147927000Y-77191000D02*
X148181000Y-76937000D01*
X148435000Y-77318000D01*
X148181000Y-77572000D01*
X147927000Y-77191000D01*
G36*
X148435000Y-77318000D02*
G01*
X148181000Y-77572000D01*
X147927000Y-77191000D01*
X148181000Y-76937000D01*
X148435000Y-77318000D01*
G37*
X148308000Y-76810000D02*
X148562000Y-76556000D01*
X148816000Y-76937000D01*
X148562000Y-77191000D01*
X148308000Y-76810000D01*
G36*
X148816000Y-76937000D02*
G01*
X148562000Y-77191000D01*
X148308000Y-76810000D01*
X148562000Y-76556000D01*
X148816000Y-76937000D01*
G37*
X148689000Y-77318000D02*
X148943000Y-77064000D01*
X149197000Y-77445000D01*
X148943000Y-77699000D01*
X148689000Y-77318000D01*
G36*
X149197000Y-77445000D02*
G01*
X148943000Y-77699000D01*
X148689000Y-77318000D01*
X148943000Y-77064000D01*
X149197000Y-77445000D01*
G37*
%TO.C,R2*%
D15*
X163677500Y-112162742D02*
X163677500Y-112637258D01*
X164722500Y-112162742D02*
X164722500Y-112637258D01*
%TO.C,Q6*%
D14*
X127550000Y-88100000D02*
X127550000Y-88885000D01*
X128380000Y-88100000D02*
X127550000Y-88100000D01*
X130450000Y-88100000D02*
X129620000Y-88100000D01*
X130450000Y-88885000D02*
X130450000Y-88100000D01*
D13*
X128150000Y-91055000D02*
G75*
G02*
X127950000Y-91055000I-100000J0D01*
G01*
X127950000Y-91055000D02*
G75*
G02*
X128150000Y-91055000I100000J0D01*
G01*
%TO.C,C10*%
D15*
X147540580Y-97890000D02*
X147259420Y-97890000D01*
X147540580Y-98910000D02*
X147259420Y-98910000D01*
%TO.C,R8*%
X130977500Y-99762742D02*
X130977500Y-100237258D01*
X132022500Y-99762742D02*
X132022500Y-100237258D01*
%TO.C,R37*%
X165262742Y-93727500D02*
X165737258Y-93727500D01*
X165262742Y-94772500D02*
X165737258Y-94772500D01*
%TO.C,R9*%
X141187742Y-102477500D02*
X141662258Y-102477500D01*
X141187742Y-103522500D02*
X141662258Y-103522500D01*
%TO.C,D8*%
X160450000Y-89685000D02*
X162735000Y-89685000D01*
X162735000Y-88215000D02*
X160450000Y-88215000D01*
X162735000Y-89685000D02*
X162735000Y-88215000D01*
%TO.C,R13*%
X128987258Y-102727500D02*
X128512742Y-102727500D01*
X128987258Y-103772500D02*
X128512742Y-103772500D01*
%TO.C,R3*%
X165277500Y-114982258D02*
X165277500Y-114507742D01*
X166322500Y-114982258D02*
X166322500Y-114507742D01*
%TO.C,D6*%
X147500000Y-91300000D02*
X152500000Y-91300000D01*
X152500000Y-96700000D02*
X147500000Y-96700000D01*
X147000000Y-91500000D02*
X146760000Y-91170000D01*
X147240000Y-91170000D01*
X147000000Y-91500000D01*
G36*
X147000000Y-91500000D02*
G01*
X146760000Y-91170000D01*
X147240000Y-91170000D01*
X147000000Y-91500000D01*
G37*
%TO.C,C21*%
X144824280Y-107168500D02*
X144543120Y-107168500D01*
X144824280Y-108188500D02*
X144543120Y-108188500D01*
%TO.C,D7*%
X161250000Y-99525000D02*
X161250000Y-94975000D01*
X161250000Y-99525000D02*
X163250000Y-99525000D01*
X163250000Y-99525000D02*
X163250000Y-94825000D01*
%TO.C,R22*%
X136152500Y-96012742D02*
X136152500Y-96487258D01*
X137197500Y-96012742D02*
X137197500Y-96487258D01*
%TO.C,R24*%
X137902500Y-96487258D02*
X137902500Y-96012742D01*
X138947500Y-96487258D02*
X138947500Y-96012742D01*
%TO.C,C7*%
X165390580Y-106490000D02*
X165109420Y-106490000D01*
X165390580Y-107510000D02*
X165109420Y-107510000D01*
%TO.C,R12*%
X137977500Y-107987258D02*
X137977500Y-107512742D01*
X139022500Y-107987258D02*
X139022500Y-107512742D01*
%TO.C,C22*%
X144849280Y-104990000D02*
X144568120Y-104990000D01*
X144849280Y-106010000D02*
X144568120Y-106010000D01*
%TO.C,U7*%
D16*
X148452500Y-102020200D02*
X148452500Y-102475547D01*
X148452500Y-103901653D02*
X148452500Y-104786947D01*
X148452500Y-106213053D02*
X148452500Y-107098347D01*
X148452500Y-108524453D02*
X148452500Y-108979800D01*
X148452500Y-108979800D02*
X152414900Y-108979800D01*
X152414900Y-102020200D02*
X148452500Y-102020200D01*
X152414900Y-103643947D02*
X152414900Y-102020200D01*
X152414900Y-108979800D02*
X152414900Y-107356053D01*
X147207900Y-100877200D02*
G75*
G02*
X146953900Y-100877200I-127000J0D01*
G01*
X146953900Y-100877200D02*
G75*
G02*
X147207900Y-100877200I127000J0D01*
G01*
%TO.C,Q2*%
D14*
X127300000Y-99350000D02*
X127300000Y-100135000D01*
X128130000Y-99350000D02*
X127300000Y-99350000D01*
X130200000Y-99350000D02*
X129370000Y-99350000D01*
X130200000Y-100135000D02*
X130200000Y-99350000D01*
D13*
X127900000Y-102305000D02*
G75*
G02*
X127700000Y-102305000I-100000J0D01*
G01*
X127700000Y-102305000D02*
G75*
G02*
X127900000Y-102305000I100000J0D01*
G01*
%TO.C,C2*%
D15*
X168615580Y-102990000D02*
X168334420Y-102990000D01*
X168615580Y-104010000D02*
X168334420Y-104010000D01*
%TO.C,C17*%
X144240000Y-58109420D02*
X144240000Y-58390580D01*
X145260000Y-58109420D02*
X145260000Y-58390580D01*
%TO.C,R26*%
X130037258Y-93877500D02*
X129562742Y-93877500D01*
X130037258Y-94922500D02*
X129562742Y-94922500D01*
%TO.C,R29*%
X157987258Y-87227500D02*
X157512742Y-87227500D01*
X157987258Y-88272500D02*
X157512742Y-88272500D01*
%TO.C,J3*%
D13*
X173700000Y-87400000D02*
X181400000Y-87400000D01*
X173700000Y-97600000D02*
X173700000Y-87400000D01*
X174550000Y-98100000D02*
X174750000Y-97600000D01*
X174750000Y-97600000D02*
X173700000Y-97600000D01*
X175600000Y-97600000D02*
X175800000Y-98100000D01*
X175800000Y-98100000D02*
X174550000Y-98100000D01*
X181400000Y-87400000D02*
X181400000Y-97600000D01*
X181400000Y-97600000D02*
X175600000Y-97600000D01*
%TO.C,R35*%
D15*
X147987258Y-89477500D02*
X147512742Y-89477500D01*
X147987258Y-90522500D02*
X147512742Y-90522500D01*
%TO.C,R27*%
X126677500Y-94962742D02*
X126677500Y-95437258D01*
X127722500Y-94962742D02*
X127722500Y-95437258D01*
%TO.C,C1*%
X168359420Y-106490000D02*
X168640580Y-106490000D01*
X168359420Y-107510000D02*
X168640580Y-107510000D01*
%TO.C,C5*%
X165390580Y-102990000D02*
X165109420Y-102990000D01*
X165390580Y-104010000D02*
X165109420Y-104010000D01*
%TO.C,R36*%
X161012742Y-86677500D02*
X161487258Y-86677500D01*
X161012742Y-87722500D02*
X161487258Y-87722500D01*
%TO.C,R38*%
X165737258Y-95477500D02*
X165262742Y-95477500D01*
X165737258Y-96522500D02*
X165262742Y-96522500D01*
%TO.C,C16*%
X142490000Y-58109420D02*
X142490000Y-58390580D01*
X143510000Y-58109420D02*
X143510000Y-58390580D01*
%TO.C,J5*%
D13*
X118350000Y-87150000D02*
X124150000Y-87150000D01*
X118350000Y-97350000D02*
X118350000Y-87150000D01*
X123950000Y-86650000D02*
X125200000Y-86650000D01*
X124150000Y-87150000D02*
X123950000Y-86650000D01*
X125000000Y-87150000D02*
X126050000Y-87150000D01*
X125200000Y-86650000D02*
X125000000Y-87150000D01*
X126050000Y-87150000D02*
X126050000Y-97350000D01*
X126050000Y-97350000D02*
X118350000Y-97350000D01*
%TD*%
M02*
